M48
METRIC,TZ
T1C0.350
T2C0.500
T3C0.635
T4C0.800
T5C0.813
T6C0.889
T7C1.000
T8C1.016
T9C1.041
T10C1.190
T11C1.500
T12C1.575
T13C2.291
T14C2.667
T15C3.000
T16C3.051
T17C3.200
%
G90
G05
T1
X39567Y-59775
X44278Y-138682
X44278Y-180492
X44869Y-155468
X46722Y-182936
X47553Y-193160
X48160Y-161840
X50238Y-130359
X50765Y-149088
X53120Y-159421
X53203Y-125350
X54703Y-159421
X55500Y-155952
X58045Y-179879
X59993Y-161411
X61343Y-150122
X61477Y-161869
X61884Y-158959
X62654Y-180946
X66937Y-138042
X67165Y-139120
X67417Y-147610
X67898Y-154156
X68342Y-134807
X68480Y-160415
X68898Y-152102
X68932Y-136678
X69312Y-144880
X69815Y-148302
X70367Y-150949
X70803Y-176740
X84768Y-135482
X85498Y-119753
X86800Y-58775
X88800Y-60150
X89590Y-133631
X89816Y-78696
X90727Y-123357
X92728Y-122136
X92817Y-65496
X94775Y-58775
X98245Y-161990
X100946Y-108270
X101084Y-133720
X105161Y-168222
X105432Y-191977
X108584Y-127990
X108597Y-130530
X109067Y-132201
X111764Y-165790
X111864Y-168797
X111882Y-120370
X112927Y-162767
X113704Y-157300
X114974Y-161075
X115466Y-147523
X116092Y-109747
X118435Y-156030
X119552Y-131784
X119716Y-98075
X120112Y-95905
X120249Y-145651
X120315Y-128684
X120388Y-171117
X120712Y-148621
X123079Y-135646
X123161Y-164143
X123391Y-75649
X123503Y-160831
X123599Y-170894
X123890Y-124180
X124623Y-116560
X124653Y-112669
X125807Y-163605
X126154Y-176095
X126233Y-162380
X126833Y-119100
X127131Y-97510
X127283Y-161110
X130968Y-96371
X131692Y-104545
X132207Y-108865
X132883Y-127939
X133768Y-96243
X134393Y-121613
X134502Y-135610
X134662Y-112955
X135729Y-161721
X135757Y-131800
X136170Y-160430
X136516Y-100598
X139744Y-154479
X139863Y-95900
X140350Y-64300
X142617Y-91055
X143723Y-90497
X147116Y-90377
X148414Y-110570
X148559Y-134920
X148721Y-158655
X149542Y-136145
X149852Y-113695
X153957Y-93249
X154256Y-147868
X154547Y-138627
X155884Y-134879
X156420Y-168308
X156619Y-108372
X156905Y-149388
X158492Y-81479
X160361Y-71822
X160507Y-69358
X161007Y-110378
X161568Y-91267
X161957Y-166278
X162332Y-121932
X162930Y-182181
X164340Y-163313
X164830Y-170377
X165747Y-81479
X165867Y-141763
X168430Y-183776
X168754Y-92539
X168797Y-131764
X170733Y-95861
X172722Y-183499
X172933Y-137538
X173292Y-118501
X173302Y-94869
X173820Y-122782
X174278Y-136448
X174481Y-109475
X174897Y-112713
X175057Y-141763
X175995Y-189222
X176020Y-182076
X177226Y-183602
X177582Y-180260
X178908Y-128450
X179114Y-101867
X179249Y-148848
X179430Y-165950
X180278Y-156102
X180324Y-149624
X180422Y-125922
X180591Y-153462
X181022Y-74153
X181641Y-139880
X182250Y-114000
X182626Y-96491
X182650Y-144329
X183659Y-179317
X184023Y-96509
X184451Y-158550
X184898Y-156963
X185283Y-81587
X185371Y-141232
X185371Y-150998
X185461Y-126903
X185758Y-156214
X186009Y-107875
X186053Y-116608
X186283Y-125304
X186622Y-113558
X186977Y-124538
X187936Y-124376
X188968Y-188248
X188992Y-119913
X189154Y-75364
X189159Y-116608
X189683Y-71638
X189839Y-117295
X190078Y-160289
X190999Y-189091
X191382Y-87568
X191790Y-122588
X192025Y-156431
X192071Y-145778
X192141Y-186767
X192438Y-120166
X192444Y-166921
X192789Y-139010
X192851Y-127903
X193569Y-153234
X193789Y-86863
X193863Y-133885
X193864Y-130775
X193864Y-147685
X194096Y-109198
X194225Y-158991
X194391Y-138880
X194465Y-125223
X194514Y-102280
X195056Y-117826
X195220Y-122588
X195447Y-84747
X195634Y-119316
X195907Y-87011
X196241Y-79571
X196611Y-102455
X196715Y-124403
X196850Y-142311
X197111Y-84791
X197188Y-121478
X197626Y-123548
X197689Y-119055
X197908Y-122311
X197969Y-183793
X198515Y-121536
X198846Y-182937
X198870Y-119055
X199138Y-80914
X199590Y-152468
X199617Y-126636
X200292Y-119316
X200307Y-88190
X201015Y-150673
X201485Y-159582
X202051Y-114710
X202054Y-170842
X202175Y-127151
X202211Y-101674
X202677Y-109137
X202827Y-185240
X203179Y-108232
X203422Y-118044
X203677Y-130950
X203999Y-101674
X206822Y-171639
X206869Y-173696
X208628Y-140119
X208876Y-121777
X209493Y-112038
X210084Y-128849
X210106Y-170698
X210344Y-119790
X210512Y-146015
X210550Y-163937
X210705Y-132445
X210924Y-93280
X211213Y-99651
X211261Y-76354
X212420Y-158156
X213023Y-79735
X213795Y-137594
X213920Y-157027
X214020Y-114170
X214127Y-81673
X214276Y-179475
X214342Y-129933
X214508Y-94055
X214622Y-89177
X214858Y-116105
X215844Y-74756
X216101Y-150646
X216282Y-119790
X216342Y-68605
X216431Y-60309
X216461Y-135030
X216736Y-81125
X216759Y-124830
X217208Y-151273
X217680Y-115926
X217680Y-132715
X217732Y-112170
X218280Y-114509
X218283Y-83070
X218428Y-160588
X219269Y-102031
X219292Y-170545
X219823Y-126610
X220100Y-94692
X220456Y-65773
X220510Y-98340
X220617Y-128160
X220704Y-120754
X221368Y-91014
X221407Y-166300
X222337Y-95474
X222808Y-92406
X223053Y-96951
X223628Y-128160
X223955Y-125953
X224043Y-124983
X224599Y-128935
X224770Y-155938
X225058Y-184645
X225483Y-110843
X226084Y-115330
X226458Y-159510
X227677Y-90821
X228094Y-92173
X228871Y-91600
X229293Y-106308
X229755Y-149055
X230426Y-145823
X230749Y-140571
X231619Y-116473
X231669Y-110061
X231718Y-126933
X231949Y-95576
X232277Y-112875
X232802Y-115738
X232852Y-135075
X233065Y-148758
X233075Y-97551
X233189Y-120987
X233199Y-142395
X233609Y-98933
X233619Y-103056
X233648Y-60995
X233831Y-168140
X233855Y-110471
X234044Y-138534
X234574Y-123644
X234731Y-140093
X234780Y-164114
X234899Y-137284
X234981Y-118229
X235251Y-76873
X235340Y-120987
X236077Y-151501
X237798Y-114838
X238746Y-106595
X238904Y-156049
X239664Y-124760
X239797Y-116039
X240010Y-67358
X241233Y-114022
X242189Y-86880
X243479Y-94753
X243877Y-67994
X244576Y-112526
X244896Y-91697
X244909Y-90574
X246007Y-126963
X247209Y-127115
X247253Y-125308
X247304Y-106604
X247591Y-142698
X247868Y-131830
X248010Y-137427
X249448Y-184440
X249695Y-164035
X250295Y-98595
X251464Y-141671
X252166Y-86225
X252467Y-141336
X253369Y-102761
X254085Y-141593
X254359Y-116696
X256047Y-176695
X256628Y-165720
X258007Y-166583
X258345Y-171346
X259454Y-153707
X259464Y-155309
X259495Y-123150
X259544Y-171236
X259661Y-113250
X260110Y-141747
X260593Y-105777
X260735Y-93428
X260886Y-138862
X261239Y-183944
X261908Y-120129
X262184Y-184650
X262855Y-156929
X263188Y-110574
X263303Y-109431
X263540Y-125695
X263572Y-80840
X263854Y-160398
X264456Y-130200
X264857Y-175779
X266438Y-115556
X266457Y-143994
X267404Y-132507
X268041Y-115928
X268057Y-176267
X268180Y-130595
X268356Y-164092
X268414Y-184339
X269516Y-155678
X269698Y-151154
X270554Y-159697
X270564Y-151929
X271962Y-143394
X272626Y-93243
X273037Y-128090
X273824Y-84420
X273852Y-121797
X275032Y-66843
X275096Y-159358
X275768Y-120905
X276067Y-159526
X276571Y-128931
X276878Y-156879
X277445Y-129805
X277867Y-160569
X280593Y-179364
X280632Y-171849
X280650Y-143994
X280930Y-132592
X282250Y-164033
X282390Y-136043
X282504Y-67608
X282530Y-69625
X282752Y-89502
X283266Y-127934
X283723Y-93488
X284156Y-138060
X287637Y-88857
X288270Y-149094
X288300Y-147312
X288560Y-150702
X290002Y-165042
X291156Y-84120
X292226Y-84120
X292847Y-120636
X293398Y-64084
X293717Y-143647
X294583Y-91201
X295497Y-140115
X297351Y-92652
X298092Y-116087
X300052Y-143874
X301270Y-111040
X301949Y-146182
X307116Y-112871
X309812Y-76697
X309812Y-78201
X309936Y-130439
X309980Y-119295
X310071Y-135374
X311171Y-112401
X311781Y-108982
X314861Y-130232
X315528Y-136760
X319245Y-157166
X319888Y-113488
X321348Y-134220
X321797Y-156592
X324184Y-151221
X324283Y-140667
X324378Y-118980
X325005Y-61711
X325895Y-138661
X325981Y-141840
X329041Y-119642
X329216Y-141840
X329344Y-137376
X329722Y-148190
X331441Y-139172
X331988Y-126919
X333176Y-81062
X333375Y-134220
X334193Y-130423
X334448Y-143065
X339017Y-67384
X342831Y-175971
X343294Y-104087
X344104Y-172726
X346357Y-165994
X346414Y-167535
X346535Y-50168
X349416Y-190866
X354107Y-173181
X354711Y-115982
X355610Y-177105
X358282Y-165659
X362940Y-162726
X363032Y-111215
X365411Y-110408
X366192Y-113366
X366873Y-178008
X367928Y-167535
X368801Y-166456
X369504Y-141293
T2
X40800Y-191450
X57921Y-150134
X60781Y-173517
X76966Y-187588
X85625Y-51175
X89422Y-80907
X92836Y-177781
X94150Y-51175
X99204Y-180007
X113809Y-152220
X118300Y-78200
X120500Y-186450
X128450Y-188550
X130850Y-75875
X142628Y-104012
X144340Y-145078
X144629Y-153114
X171050Y-190675
X195556Y-73197
X228543Y-158034
X235700Y-60575
X241868Y-140000
X268621Y-71435
X274642Y-136190
X276606Y-172997
X295989Y-103422
X218725Y-187375
X218725Y-189275
T3
X72475Y-122441
X72475Y-124219
X72475Y-125997
X72475Y-127775
X72475Y-129553
X72475Y-131331
X72475Y-133109
X72475Y-134887
X72475Y-136665
X72475Y-138443
X72475Y-140221
X72475Y-141999
X72475Y-143777
X72475Y-145555
X72475Y-147333
X72475Y-149111
X72475Y-150889
X72475Y-152667
X72475Y-154445
X72475Y-156223
X72475Y-158001
X72475Y-159779
X72475Y-161557
X72475Y-163335
X72475Y-165113
X72475Y-166891
X72475Y-168669
X72475Y-170447
X72475Y-172225
X72475Y-174003
X72475Y-175781
X72475Y-177559
X91525Y-122441
X91525Y-124219
X91525Y-125997
X91525Y-127775
X91525Y-129553
X91525Y-131331
X91525Y-133109
X91525Y-134887
X91525Y-136665
X91525Y-138443
X91525Y-140221
X91525Y-141999
X91525Y-143777
X91525Y-145555
X91525Y-147333
X91525Y-149111
X91525Y-150889
X91525Y-152667
X91525Y-154445
X91525Y-156223
X91525Y-158001
X91525Y-159779
X91525Y-161557
X91525Y-163335
X91525Y-165113
X91525Y-166891
X91525Y-168669
X91525Y-170447
X91525Y-172225
X91525Y-174003
X91525Y-175781
X91525Y-177559
T4
X149250Y-66850
X149250Y-69350
X151380Y-124760
X151380Y-127300
X151380Y-129840
X151380Y-132380
X151380Y-134920
X151380Y-137460
X151380Y-140000
X159000Y-124760
X159000Y-127300
X159000Y-129840
X159000Y-132380
X159000Y-134920
X159000Y-137460
X159000Y-140000
X204380Y-161220
X204380Y-163760
X204380Y-166300
X204380Y-168840
X204380Y-171380
X204380Y-173920
X204380Y-176460
X204380Y-179000
X212000Y-161220
X212000Y-163760
X212000Y-166300
X212000Y-168840
X212000Y-171380
X212000Y-173920
X212000Y-176460
X212000Y-179000
X199000Y-63880
X199000Y-71500
X201540Y-63880
X201540Y-71500
X204080Y-63880
X204080Y-71500
X206620Y-63880
X206620Y-71500
X209160Y-63880
X209160Y-71500
X211700Y-63880
X211700Y-71500
X214240Y-63880
X214240Y-71500
X216780Y-63880
X216780Y-71500
X219320Y-63880
X219320Y-71500
X221860Y-63880
X221860Y-71500
X120000Y-82500
X120000Y-85000
X236380Y-117140
X236380Y-119680
X236380Y-122220
X236380Y-124760
X236380Y-127300
X236380Y-129840
X236380Y-132380
X236380Y-134920
X236380Y-137460
X236380Y-140000
X244000Y-117140
X244000Y-119680
X244000Y-122220
X244000Y-124760
X244000Y-127300
X244000Y-129840
X244000Y-132380
X244000Y-134920
X244000Y-137460
X244000Y-140000
X269500Y-131880
X269500Y-139500
X272040Y-131880
X272040Y-139500
X274580Y-131880
X274580Y-139500
X277120Y-131880
X277120Y-139500
X279660Y-131880
X279660Y-139500
X282200Y-131880
X282200Y-139500
X284740Y-131880
X284740Y-139500
X287280Y-131880
X287280Y-139500
X97000Y-155640
X97000Y-158180
X97000Y-160720
X97000Y-163260
X97000Y-165800
X97000Y-168340
X97000Y-170880
X97000Y-173420
X97000Y-175960
X97000Y-178500
X216640Y-79000
X219180Y-79000
X221720Y-79000
X224260Y-79000
X226800Y-79000
X229340Y-79000
X231880Y-79000
X234420Y-79000
X236960Y-79000
X239500Y-79000
X134000Y-79880
X134000Y-87500
X136540Y-79880
X136540Y-87500
X139080Y-79880
X139080Y-87500
X141620Y-79880
X141620Y-87500
X335260Y-113900
X335260Y-116440
X335260Y-118980
X335260Y-121520
X335260Y-124060
X335260Y-126600
X335260Y-129140
X335260Y-131680
X335260Y-134220
X335260Y-136760
X335260Y-139300
X335260Y-141840
X335260Y-144380
X335260Y-146920
X335260Y-149460
X335260Y-152000
X350500Y-113900
X350500Y-116440
X350500Y-118980
X350500Y-121520
X350500Y-124060
X350500Y-126600
X350500Y-129140
X350500Y-131680
X350500Y-134220
X350500Y-136760
X350500Y-139300
X350500Y-141840
X350500Y-144380
X350500Y-146920
X350500Y-149460
X350500Y-152000
X173880Y-162140
X173880Y-164680
X173880Y-167220
X173880Y-169760
X173880Y-172300
X173880Y-174840
X173880Y-177380
X173880Y-179920
X173880Y-182460
X173880Y-185000
X181500Y-162140
X181500Y-164680
X181500Y-167220
X181500Y-169760
X181500Y-172300
X181500Y-174840
X181500Y-177380
X181500Y-179920
X181500Y-182460
X181500Y-185000
X159380Y-152260
X159380Y-154800
X159380Y-157340
X159380Y-159880
X159380Y-162420
X159380Y-164960
X159380Y-167500
X167000Y-152260
X167000Y-154800
X167000Y-157340
X167000Y-159880
X167000Y-162420
X167000Y-164960
X167000Y-167500
X76500Y-114500
X79040Y-114500
X81580Y-114500
X84120Y-114500
X86660Y-114500
X89200Y-114500
X271000Y-167880
X271000Y-175500
X273540Y-167880
X273540Y-175500
X276080Y-167880
X276080Y-175500
X278620Y-167880
X278620Y-175500
X281160Y-167880
X281160Y-175500
X283700Y-167880
X283700Y-175500
X286240Y-167880
X286240Y-175500
X288780Y-167880
X288780Y-175500
X271000Y-181380
X271000Y-189000
X273540Y-181380
X273540Y-189000
X276080Y-181380
X276080Y-189000
X278620Y-181380
X278620Y-189000
X281160Y-181380
X281160Y-189000
X283700Y-181380
X283700Y-189000
X286240Y-181380
X286240Y-189000
X288780Y-181380
X288780Y-189000
X232380Y-160180
X232380Y-162720
X232380Y-165260
X232380Y-167800
X232380Y-170340
X232380Y-172880
X232380Y-175420
X232380Y-177960
X232380Y-180500
X240000Y-160180
X240000Y-162720
X240000Y-165260
X240000Y-167800
X240000Y-170340
X240000Y-172880
X240000Y-175420
X240000Y-177960
X240000Y-180500
X45500Y-132380
X45500Y-140000
X48040Y-132380
X48040Y-140000
X50580Y-132380
X50580Y-140000
X53120Y-132380
X53120Y-140000
X55660Y-132380
X55660Y-140000
X58200Y-132380
X58200Y-140000
X60740Y-132380
X60740Y-140000
X63280Y-132380
X63280Y-140000
X65820Y-132380
X65820Y-140000
X297380Y-136260
X297380Y-138800
X297380Y-141340
X297380Y-143880
X297380Y-146420
X297380Y-148960
X297380Y-151500
X305000Y-136260
X305000Y-138800
X305000Y-141340
X305000Y-143880
X305000Y-146420
X305000Y-148960
X305000Y-151500
X57045Y-125350
X61925Y-125350
X134380Y-152260
X134380Y-154800
X134380Y-157340
X134380Y-159880
X134380Y-162420
X134380Y-164960
X134380Y-167500
X142000Y-152260
X142000Y-154800
X142000Y-157340
X142000Y-159880
X142000Y-162420
X142000Y-164960
X142000Y-167500
X212260Y-100740
X212260Y-103280
X212260Y-105820
X212260Y-108360
X212260Y-110900
X212260Y-113440
X212260Y-115980
X212260Y-118520
X212260Y-121060
X212260Y-123600
X212260Y-126140
X212260Y-128680
X212260Y-131220
X212260Y-133760
X212260Y-136300
X212260Y-138840
X212260Y-141380
X212260Y-143920
X212260Y-146460
X212260Y-149000
X227500Y-100740
X227500Y-103280
X227500Y-105820
X227500Y-108360
X227500Y-110900
X227500Y-113440
X227500Y-115980
X227500Y-118520
X227500Y-121060
X227500Y-123600
X227500Y-126140
X227500Y-128680
X227500Y-131220
X227500Y-133760
X227500Y-136300
X227500Y-138840
X227500Y-141380
X227500Y-143920
X227500Y-146460
X227500Y-149000
X138880Y-99760
X138880Y-102300
X138880Y-104840
X138880Y-107380
X138880Y-109920
X138880Y-112460
X138880Y-115000
X146500Y-99760
X146500Y-102300
X146500Y-104840
X146500Y-107380
X146500Y-109920
X146500Y-112460
X146500Y-115000
X166500Y-90500
X169000Y-90500
X269500Y-97500
X272040Y-97500
X274580Y-97500
X277120Y-97500
X279660Y-97500
X282200Y-97500
X284740Y-97500
X287280Y-97500
X289820Y-97500
X292360Y-97500
X245880Y-160220
X245880Y-162760
X245880Y-165300
X245880Y-167840
X245880Y-170380
X245880Y-172920
X245880Y-175460
X245880Y-178000
X253500Y-160220
X253500Y-162760
X253500Y-165300
X253500Y-167840
X253500Y-170380
X253500Y-172920
X253500Y-175460
X253500Y-178000
X235500Y-110000
X238040Y-110000
X240580Y-110000
X243120Y-110000
X245660Y-110000
X248200Y-110000
X250740Y-110000
X253280Y-110000
X255820Y-110000
X258360Y-110000
X236500Y-96880
X236500Y-104500
X239040Y-96880
X239040Y-104500
X241580Y-96880
X241580Y-104500
X244120Y-96880
X244120Y-104500
X246660Y-96880
X246660Y-104500
X249200Y-96880
X249200Y-104500
X251740Y-96880
X251740Y-104500
X254280Y-96880
X254280Y-104500
X256820Y-96880
X256820Y-104500
X259360Y-96880
X259360Y-104500
X176380Y-124640
X176380Y-127180
X176380Y-129720
X176380Y-132260
X176380Y-134800
X176380Y-137340
X176380Y-139880
X176380Y-142420
X176380Y-144960
X176380Y-147500
X184000Y-124640
X184000Y-127180
X184000Y-129720
X184000Y-132260
X184000Y-134800
X184000Y-137340
X184000Y-139880
X184000Y-142420
X184000Y-144960
X184000Y-147500
X54500Y-186000
X59380Y-186000
X269500Y-102380
X269500Y-110000
X272040Y-102380
X272040Y-110000
X274580Y-102380
X274580Y-110000
X277120Y-102380
X277120Y-110000
X279660Y-102380
X279660Y-110000
X282200Y-102380
X282200Y-110000
X284740Y-102380
X284740Y-110000
X287280Y-102380
X287280Y-110000
X289820Y-102380
X289820Y-110000
X292360Y-102380
X292360Y-110000
X349500Y-170800
X349500Y-173340
X349500Y-175880
X349500Y-178420
X349500Y-180960
X349500Y-183500
X187500Y-90500
X190000Y-90500
X187880Y-162140
X187880Y-164680
X187880Y-167220
X187880Y-169760
X187880Y-172300
X187880Y-174840
X187880Y-177380
X187880Y-179920
X187880Y-182460
X187880Y-185000
X195500Y-162140
X195500Y-164680
X195500Y-167220
X195500Y-169760
X195500Y-172300
X195500Y-174840
X195500Y-177380
X195500Y-179920
X195500Y-182460
X195500Y-185000
X190760Y-100740
X190760Y-103280
X190760Y-105820
X190760Y-108360
X190760Y-110900
X190760Y-113440
X190760Y-115980
X190760Y-118520
X190760Y-121060
X190760Y-123600
X190760Y-126140
X190760Y-128680
X190760Y-131220
X190760Y-133760
X190760Y-136300
X190760Y-138840
X190760Y-141380
X190760Y-143920
X190760Y-146460
X190760Y-149000
X206000Y-100740
X206000Y-103280
X206000Y-105820
X206000Y-108360
X206000Y-110900
X206000Y-113440
X206000Y-115980
X206000Y-118520
X206000Y-121060
X206000Y-123600
X206000Y-126140
X206000Y-128680
X206000Y-131220
X206000Y-133760
X206000Y-136300
X206000Y-138840
X206000Y-141380
X206000Y-143920
X206000Y-146460
X206000Y-149000
X163880Y-124760
X163880Y-127300
X163880Y-129840
X163880Y-132380
X163880Y-134920
X163880Y-137460
X163880Y-140000
X171500Y-124760
X171500Y-127300
X171500Y-129840
X171500Y-132380
X171500Y-134920
X171500Y-137460
X171500Y-140000
X312260Y-113900
X312260Y-116440
X312260Y-118980
X312260Y-121520
X312260Y-124060
X312260Y-126600
X312260Y-129140
X312260Y-131680
X312260Y-134220
X312260Y-136760
X312260Y-139300
X312260Y-141840
X312260Y-144380
X312260Y-146920
X312260Y-149460
X312260Y-152000
X327500Y-113900
X327500Y-116440
X327500Y-118980
X327500Y-121520
X327500Y-124060
X327500Y-126600
X327500Y-129140
X327500Y-131680
X327500Y-134220
X327500Y-136760
X327500Y-139300
X327500Y-141840
X327500Y-144380
X327500Y-146920
X327500Y-149460
X327500Y-152000
X297380Y-160220
X297380Y-162760
X297380Y-165300
X297380Y-167840
X297380Y-170380
X297380Y-172920
X297380Y-175460
X297380Y-178000
X305000Y-160220
X305000Y-162760
X305000Y-165300
X305000Y-167840
X305000Y-170380
X305000Y-172920
X305000Y-175460
X305000Y-178000
X211725Y-186425
X211725Y-190225
X271000Y-154380
X271000Y-162000
X273540Y-154380
X273540Y-162000
X276080Y-154380
X276080Y-162000
X278620Y-154380
X278620Y-162000
X281160Y-154380
X281160Y-162000
X283700Y-154380
X283700Y-162000
X286240Y-154380
X286240Y-162000
X288780Y-154380
X288780Y-162000
X235000Y-63880
X235000Y-71500
X237540Y-63880
X237540Y-71500
X240080Y-63880
X240080Y-71500
X242620Y-63880
X242620Y-71500
X245160Y-63880
X245160Y-71500
X247700Y-63880
X247700Y-71500
X250240Y-63880
X250240Y-71500
X138880Y-124760
X138880Y-127300
X138880Y-129840
X138880Y-132380
X138880Y-134920
X138880Y-137460
X138880Y-140000
X146500Y-124760
X146500Y-127300
X146500Y-129840
X146500Y-132380
X146500Y-134920
X146500Y-137460
X146500Y-140000
X146880Y-152260
X146880Y-154800
X146880Y-157340
X146880Y-159880
X146880Y-162420
X146880Y-164960
X146880Y-167500
X154500Y-152260
X154500Y-154800
X154500Y-157340
X154500Y-159880
X154500Y-162420
X154500Y-164960
X154500Y-167500
X356380Y-170720
X356380Y-173260
X356380Y-175800
X356380Y-178340
X356380Y-180880
X356380Y-183420
X356380Y-185960
X356380Y-188500
X364000Y-170720
X364000Y-173260
X364000Y-175800
X364000Y-178340
X364000Y-180880
X364000Y-183420
X364000Y-185960
X364000Y-188500
X173500Y-90500
X176000Y-90500
X216880Y-161220
X216880Y-163760
X216880Y-166300
X216880Y-168840
X216880Y-171380
X216880Y-173920
X216880Y-176460
X216880Y-179000
X224500Y-161220
X224500Y-163760
X224500Y-166300
X224500Y-168840
X224500Y-171380
X224500Y-173920
X224500Y-176460
X224500Y-179000
X115500Y-177500
X118040Y-177500
X120580Y-177500
X123120Y-177500
X125660Y-177500
X128200Y-177500
X130740Y-177500
X133280Y-177500
X135820Y-177500
X138360Y-177500
X114260Y-96240
X114260Y-98780
X114260Y-101320
X114260Y-103860
X114260Y-106400
X114260Y-108940
X114260Y-111480
X114260Y-114020
X114260Y-116560
X114260Y-119100
X114260Y-121640
X114260Y-124180
X114260Y-126720
X114260Y-129260
X114260Y-131800
X114260Y-134340
X114260Y-136880
X114260Y-139420
X114260Y-141960
X114260Y-144500
X129500Y-96240
X129500Y-98780
X129500Y-101320
X129500Y-103860
X129500Y-106400
X129500Y-108940
X129500Y-111480
X129500Y-114020
X129500Y-116560
X129500Y-119100
X129500Y-121640
X129500Y-124180
X129500Y-126720
X129500Y-129260
X129500Y-131800
X129500Y-134340
X129500Y-136880
X129500Y-139420
X129500Y-141960
X129500Y-144500
X97000Y-128640
X97000Y-131180
X97000Y-133720
X97000Y-136260
X97000Y-138800
X97000Y-141340
X97000Y-143880
X97000Y-146420
X97000Y-148960
X97000Y-151500
X45500Y-169380
X45500Y-177000
X48040Y-169380
X48040Y-177000
X50580Y-169380
X50580Y-177000
X53120Y-169380
X53120Y-177000
X55660Y-169380
X55660Y-177000
X58200Y-169380
X58200Y-177000
X60740Y-169380
X60740Y-177000
X63280Y-169380
X63280Y-177000
X65820Y-169380
X65820Y-177000
X121880Y-152220
X121880Y-154760
X121880Y-157300
X121880Y-159840
X121880Y-162380
X121880Y-164920
X121880Y-167460
X121880Y-170000
X129500Y-152220
X129500Y-154760
X129500Y-157300
X129500Y-159840
X129500Y-162380
X129500Y-164920
X129500Y-167460
X129500Y-170000
X107000Y-120140
X107000Y-122680
X107000Y-125220
X107000Y-127760
X107000Y-130300
X107000Y-132840
X107000Y-135380
X107000Y-137920
X107000Y-140460
X107000Y-143000
X151380Y-99760
X151380Y-102300
X151380Y-104840
X151380Y-107380
X151380Y-109920
X151380Y-112460
X151380Y-115000
X159000Y-99760
X159000Y-102300
X159000Y-104840
X159000Y-107380
X159000Y-109920
X159000Y-112460
X159000Y-115000
X339000Y-163000
X341500Y-163000
X258000Y-179000
X260500Y-179000
X68000Y-93920
X68000Y-96460
X68000Y-99000
X264000Y-190500
X266500Y-190500
X300500Y-97880
X300500Y-105500
X303040Y-97880
X303040Y-105500
X305580Y-97880
X305580Y-105500
X308120Y-97880
X308120Y-105500
X310660Y-97880
X310660Y-105500
X313200Y-97880
X313200Y-105500
X315740Y-97880
X315740Y-105500
X318280Y-97880
X318280Y-105500
X320820Y-97880
X320820Y-105500
X323360Y-97880
X323360Y-105500
X249880Y-117140
X249880Y-119680
X249880Y-122220
X249880Y-124760
X249880Y-127300
X249880Y-129840
X249880Y-132380
X249880Y-134920
X249880Y-137460
X249880Y-140000
X257500Y-117140
X257500Y-119680
X257500Y-122220
X257500Y-124760
X257500Y-127300
X257500Y-129840
X257500Y-132380
X257500Y-134920
X257500Y-137460
X257500Y-140000
X269500Y-117380
X269500Y-125000
X272040Y-117380
X272040Y-125000
X274580Y-117380
X274580Y-125000
X277120Y-117380
X277120Y-125000
X279660Y-117380
X279660Y-125000
X282200Y-117380
X282200Y-125000
X284740Y-117380
X284740Y-125000
X287280Y-117380
X287280Y-125000
X289820Y-117380
X289820Y-125000
X292360Y-117380
X292360Y-125000
X336000Y-97880
X336000Y-105500
X338540Y-97880
X338540Y-105500
X341080Y-97880
X341080Y-105500
X343620Y-97880
X343620Y-105500
X346160Y-97880
X346160Y-105500
X348700Y-97880
X348700Y-105500
X351240Y-97880
X351240Y-105500
X353780Y-97880
X353780Y-105500
X356320Y-97880
X356320Y-105500
X358860Y-97880
X358860Y-105500
X109380Y-152220
X109380Y-154760
X109380Y-157300
X109380Y-159840
X109380Y-162380
X109380Y-164920
X109380Y-167460
X109380Y-170000
X117000Y-152220
X117000Y-154760
X117000Y-157300
X117000Y-159840
X117000Y-162380
X117000Y-164920
X117000Y-167460
X117000Y-170000
X45500Y-157380
X45500Y-165000
X48040Y-157380
X48040Y-165000
X50580Y-157380
X50580Y-165000
X53120Y-157380
X53120Y-165000
X55660Y-157380
X55660Y-165000
X58200Y-157380
X58200Y-165000
X60740Y-157380
X60740Y-165000
X63280Y-157380
X63280Y-165000
X65820Y-157380
X65820Y-165000
X183000Y-70500
X185500Y-70500
X163880Y-99760
X163880Y-102300
X163880Y-104840
X163880Y-107380
X163880Y-109920
X163880Y-112460
X163880Y-115000
X171500Y-99760
X171500Y-102300
X171500Y-104840
X171500Y-107380
X171500Y-109920
X171500Y-112460
X171500Y-115000
X108500Y-82500
X108500Y-85000
X173000Y-75880
X173000Y-83500
X175540Y-75880
X175540Y-83500
X178080Y-75880
X178080Y-83500
X180620Y-75880
X180620Y-83500
X176380Y-99760
X176380Y-102300
X176380Y-104840
X176380Y-107380
X176380Y-109920
X176380Y-112460
X176380Y-115000
X184000Y-99760
X184000Y-102300
X184000Y-104840
X184000Y-107380
X184000Y-109920
X184000Y-112460
X184000Y-115000
X120500Y-184000
X123040Y-184000
X125580Y-184000
X128120Y-184000
X130660Y-184000
X133200Y-184000
X103500Y-106000
X103500Y-108500
X52000Y-108880
X52000Y-116500
X54540Y-108880
X54540Y-116500
X57080Y-108880
X57080Y-116500
X59620Y-108880
X59620Y-116500
X62160Y-108880
X62160Y-116500
X64700Y-108880
X64700Y-116500
X67240Y-108880
X67240Y-116500
X79500Y-184000
X82000Y-184000
X45500Y-144880
X45500Y-152500
X48040Y-144880
X48040Y-152500
X50580Y-144880
X50580Y-152500
X53120Y-144880
X53120Y-152500
X55660Y-144880
X55660Y-152500
X58200Y-144880
X58200Y-152500
X60740Y-144880
X60740Y-152500
X63280Y-144880
X63280Y-152500
X65820Y-144880
X65820Y-152500
X180500Y-90500
X183000Y-90500
X168500Y-70000
X171040Y-70000
X173580Y-70000
T5
X80030Y-89420
X80030Y-99580
X82570Y-89420
X82570Y-99580
X85110Y-89420
X85110Y-99580
X87650Y-89420
X87650Y-99580
X90190Y-89420
X90190Y-99580
X92730Y-89420
X92730Y-99580
X95270Y-89420
X95270Y-99580
X97810Y-89420
X97810Y-99580
X100350Y-89420
X100350Y-99580
X102890Y-89420
X102890Y-99580
X105430Y-89420
X105430Y-99580
X107970Y-89420
X107970Y-99580
X193040Y-48260
X193040Y-55880
X193040Y-58420
X198120Y-48260
X198120Y-55880
X198120Y-58420
T6
X123600Y-54220
X123600Y-56720
X130400Y-54220
X130400Y-56720
T7
X147500Y-187500
X148885Y-190340
X150270Y-187500
X151655Y-190340
X153040Y-187500
X154425Y-190340
X155810Y-187500
X157195Y-190340
X158580Y-187500
X95500Y-187500
X96885Y-190340
X98270Y-187500
X99655Y-190340
X101040Y-187500
X102425Y-190340
X103810Y-187500
X105195Y-190340
X106580Y-187500
X92000Y-70000
X92000Y-75000
X97000Y-123500
X99540Y-123500
X102080Y-123500
X250975Y-185455
X250975Y-187995
X250975Y-190535
X250975Y-193075
X116000Y-70000
X116000Y-75000
X67125Y-104900
X69665Y-104900
X72205Y-104900
X104000Y-70000
X104000Y-75000
X298500Y-127185
X298500Y-129725
X301040Y-127185
X301040Y-129725
X303580Y-127185
X303580Y-129725
X102000Y-136520
X102000Y-139060
X102000Y-141600
X102000Y-144140
X102000Y-146680
X102000Y-149220
X102000Y-151760
X102000Y-154300
X102000Y-156840
X102000Y-159380
X102000Y-161920
X102000Y-164460
X102000Y-167000
X54000Y-80000
X59000Y-80000
X50500Y-87000
X50500Y-92000
X349000Y-160460
X349000Y-163000
X351540Y-160460
X351540Y-163000
X354080Y-160460
X354080Y-163000
X94000Y-115000
X96540Y-115000
X99080Y-115000
X219220Y-87000
X219220Y-89540
X221760Y-87000
X221760Y-89540
X224300Y-87000
X224300Y-89540
X226840Y-87000
X226840Y-89540
X229380Y-87000
X229380Y-89540
X231920Y-87000
X231920Y-89540
X234460Y-87000
X234460Y-89540
X237000Y-87000
X237000Y-89540
X140000Y-69000
X140000Y-74000
X134500Y-106460
X134500Y-109000
X104000Y-115000
X106540Y-115000
X109080Y-115000
X80000Y-70000
X80000Y-75000
X45000Y-77475
X45000Y-82475
X128000Y-69000
X128000Y-74000
X364460Y-114740
X364460Y-117280
X364460Y-119820
X364460Y-122360
X364460Y-124900
X364460Y-127440
X364460Y-129980
X364460Y-132520
X364460Y-135060
X364460Y-137600
X364460Y-140140
X364460Y-142680
X364460Y-145220
X364460Y-147760
X364460Y-150300
X364460Y-152840
X364460Y-155380
X364460Y-157920
X364460Y-160460
X364460Y-163000
X367000Y-114740
X367000Y-117280
X367000Y-119820
X367000Y-122360
X367000Y-124900
X367000Y-127440
X367000Y-129980
X367000Y-132520
X367000Y-135060
X367000Y-137600
X367000Y-140140
X367000Y-142680
X367000Y-145220
X367000Y-147760
X367000Y-150300
X367000Y-152840
X367000Y-155380
X367000Y-157920
X367000Y-160460
X367000Y-163000
T8
X288290Y-54610
X288290Y-59690
X290830Y-54610
X290830Y-59690
X293370Y-54610
X293370Y-59690
X295910Y-54610
X295910Y-59690
X298450Y-54610
X298450Y-59690
X300990Y-54610
X300990Y-59690
X303530Y-54610
X303530Y-59690
X306070Y-54610
X306070Y-59690
X308610Y-54610
X308610Y-59690
X311150Y-54610
X311150Y-59690
X313690Y-54610
X313690Y-59690
X316230Y-54610
X316230Y-59690
X318770Y-54610
X318770Y-59690
X321310Y-54610
X321310Y-59690
X323850Y-54610
X323850Y-59690
X326390Y-54610
X326390Y-59690
X328930Y-54610
X328930Y-59690
X331470Y-54610
X331470Y-59690
X334010Y-54610
X334010Y-59690
X336550Y-54610
X336550Y-59690
X339090Y-54610
X339090Y-59690
X341630Y-54610
X341630Y-59690
X344170Y-54610
X344170Y-59690
X346710Y-54610
X346710Y-59690
X349250Y-54610
X349250Y-59690
X311000Y-180000
X330999Y-180000
X288290Y-77470
X288290Y-82550
X290830Y-77470
X290830Y-82550
X293370Y-77470
X293370Y-82550
X295910Y-77470
X295910Y-82550
X298450Y-77470
X298450Y-82550
X300990Y-77470
X300990Y-82550
X303530Y-77470
X303530Y-82550
X306070Y-77470
X306070Y-82550
X308610Y-77470
X308610Y-82550
X311150Y-77470
X311150Y-82550
X313690Y-77470
X313690Y-82550
X316230Y-77470
X316230Y-82550
X318770Y-77470
X318770Y-82550
X321310Y-77470
X321310Y-82550
X323850Y-77470
X323850Y-82550
X326390Y-77470
X326390Y-82550
X328930Y-77470
X328930Y-82550
X331470Y-77470
X331470Y-82550
X334010Y-77470
X334010Y-82550
X336550Y-77470
X336550Y-82550
X339090Y-77470
X339090Y-82550
X341630Y-77470
X341630Y-82550
X344170Y-77470
X344170Y-82550
X346710Y-77470
X346710Y-82550
X349250Y-77470
X349250Y-82550
T9
X222120Y-54175
X222120Y-58465
X224280Y-54175
X224280Y-58465
X226440Y-54175
X226440Y-58465
X228600Y-54175
X228600Y-58465
X230760Y-54175
X230760Y-58465
X232920Y-54175
X232920Y-58465
X235080Y-54175
X235080Y-58465
T10
X56500Y-100500
X59040Y-100500
X61580Y-100500
X136000Y-92500
X136000Y-95040
X140460Y-60000
X143000Y-60000
X196500Y-89500
X199040Y-89500
X41500Y-112000
X44040Y-112000
X93500Y-62500
X96040Y-62500
X98580Y-62500
X101120Y-62500
X103660Y-62500
X41500Y-100500
X44040Y-100500
X111500Y-61000
X114040Y-61000
X116580Y-61000
X49000Y-100500
X51540Y-100500
X248500Y-77000
X248500Y-79540
X43000Y-67500
X45540Y-67500
X48080Y-67500
X50620Y-67500
X53160Y-67500
X68000Y-86000
X70540Y-86000
X73080Y-86000
X204500Y-89500
X207040Y-89500
T11
X170300Y-57720
X170300Y-62720
X172800Y-48220
X172800Y-60220
X177800Y-57720
X177800Y-62720
X182800Y-48220
X182800Y-60220
X185300Y-57720
X185300Y-62720
X68700Y-57720
X68700Y-62720
X71200Y-48220
X71200Y-60220
X76200Y-57720
X76200Y-62720
X81200Y-48220
X81200Y-60220
X83700Y-57720
X83700Y-62720
T12
X152400Y-54610
X101600Y-54610
T13
X120250Y-51220
X127000Y-50420
X133750Y-51220
T14
X147320Y-54610
X152400Y-49530
X157480Y-54610
X96520Y-54610
X101600Y-49530
X106680Y-54610
T15
X358140Y-145415
X357822Y-57150
X203200Y-189230
X68580Y-77470
X357822Y-80010
X307340Y-189230
X203200Y-77470
X328930Y-107950
X279718Y-80010
X279718Y-57150
X68580Y-189230
T16
X210600Y-56320
X246600Y-56320
T17
X140540Y-187800
X165540Y-187800
X88540Y-187800
X113540Y-187800
T7
G00X46100Y-55600
M15
G01X46100Y-57600
M16
G05
G00X51800Y-53600
M15
G01X49800Y-53600
M16
G05
G00X51800Y-59600
M15
G01X49800Y-59600
M16
G05
T0
M30
