M48
METRIC,TZ
T1C0.400
T2C0.500
T3C0.635
T4C0.800
T5C0.813
T6C0.889
T7C1.000
T8C1.016
T9C1.041
T10C1.190
T11C1.500
T12C1.575
T13C2.291
T14C2.667
T15C3.000
T16C3.051
T17C3.200
%
G90
G05
T1
X42647Y-158605
X46631Y-147257
X47762Y-153969
X48780Y-174795
X54435Y-153392
X55253Y-150722
X61362Y-159150
X62565Y-183472
X70113Y-140220
X71087Y-150583
X71430Y-174630
X78171Y-168669
X81014Y-142562
X82191Y-121451
X82221Y-126984
X87036Y-123680
X87424Y-126520
X87864Y-130248
X88250Y-57600
X89088Y-74425
X89634Y-122545
X90871Y-77642
X94275Y-57600
X94524Y-177229
X96825Y-67700
X101317Y-107904
X102481Y-134257
X104463Y-167518
X107870Y-167031
X108008Y-147834
X110089Y-125450
X111264Y-78467
X111484Y-104886
X112044Y-147007
X112119Y-118295
X112580Y-112707
X113433Y-140690
X113439Y-127990
X114358Y-157300
X115122Y-148764
X115792Y-182952
X118232Y-175281
X118251Y-98799
X118383Y-96240
X118390Y-174226
X119506Y-157291
X119541Y-154869
X119559Y-162271
X120276Y-134975
X120903Y-95456
X121494Y-129260
X121539Y-94052
X121611Y-141096
X121843Y-97668
X122067Y-125438
X122364Y-93341
X122522Y-132550
X122615Y-142886
X123259Y-86533
X124143Y-92808
X124411Y-158268
X125140Y-106400
X126169Y-126720
X126283Y-98780
X126425Y-174226
X126451Y-103860
X126473Y-161105
X126486Y-101454
X126580Y-162380
X126677Y-134975
X126748Y-95368
X127410Y-159840
X127446Y-146616
X127648Y-170292
X127742Y-131725
X130400Y-61000
X130437Y-163605
X130973Y-143198
X131636Y-139828
X131792Y-169607
X132212Y-163333
X132394Y-85884
X133453Y-145725
X134155Y-148042
X134451Y-116246
X135592Y-74872
X136157Y-117207
X136229Y-110760
X136585Y-133971
X137374Y-100365
X138565Y-151894
X138710Y-119367
X139174Y-155968
X139546Y-122379
X139729Y-106071
X140694Y-92028
X142201Y-98535
X143683Y-146616
X143687Y-151847
X144103Y-136953
X144429Y-89495
X144924Y-170818
X147619Y-105934
X147686Y-108366
X147759Y-66414
X148422Y-161397
X148660Y-74181
X149024Y-105337
X150289Y-77491
X150472Y-119367
X150595Y-148042
X150988Y-117584
X151672Y-145743
X151812Y-147415
X151822Y-159880
X152334Y-90129
X152394Y-117609
X152932Y-108840
X152962Y-94591
X153580Y-171571
X154362Y-127300
X154513Y-93896
X154987Y-138645
X155145Y-87301
X155382Y-142193
X156967Y-113597
X157822Y-175506
X158644Y-176256
X159595Y-169658
X159665Y-189641
X159971Y-148807
X160348Y-142476
X160823Y-173672
X161258Y-88343
X162486Y-86889
X162635Y-89301
X163092Y-178967
X163093Y-79695
X165550Y-113285
X165771Y-96100
X167142Y-87034
X168045Y-171596
X168558Y-152682
X169020Y-77491
X170045Y-102521
X170296Y-176623
X171399Y-116764
X171720Y-74181
X171930Y-144407
X172043Y-117609
X172475Y-96966
X172686Y-122824
X172781Y-152682
X172786Y-150982
X172927Y-188684
X173040Y-121696
X173323Y-106511
X173680Y-103570
X173915Y-189672
X174239Y-141150
X174924Y-99233
X175582Y-188147
X175889Y-171030
X176060Y-151363
X176843Y-117531
X177223Y-146290
X177511Y-66959
X177945Y-170492
X177952Y-156148
X178214Y-157491
X178427Y-116226
X178616Y-171923
X178631Y-173201
X178756Y-151363
X179000Y-131808
X179364Y-136070
X179369Y-129005
X179465Y-187424
X180022Y-173525
X180090Y-89202
X180190Y-108650
X180491Y-170804
X181428Y-155233
X181627Y-98385
X181805Y-158369
X182154Y-160654
X182228Y-145229
X182451Y-111357
X182512Y-152101
X182657Y-153543
X182787Y-173525
X182896Y-157289
X183394Y-177451
X184125Y-97525
X184191Y-164680
X185127Y-172627
X185180Y-120385
X185680Y-79332
X185894Y-142515
X186121Y-146275
X186414Y-104229
X186560Y-135000
X186911Y-108650
X186947Y-152756
X187778Y-121207
X188471Y-146890
X188521Y-138247
X188705Y-103616
X189274Y-118373
X189579Y-147730
X189877Y-140110
X190413Y-74655
X191279Y-172687
X192079Y-107090
X192163Y-102590
X192218Y-125505
X192402Y-132681
X192675Y-164953
X193002Y-133760
X193253Y-152156
X193500Y-147793
X193635Y-120585
X194011Y-103966
X194029Y-185393
X194062Y-115155
X194075Y-151334
X194211Y-108360
X194345Y-88324
X194409Y-89437
X194835Y-150589
X194862Y-188340
X195049Y-110900
X195263Y-152293
X195575Y-113440
X195705Y-104740
X195813Y-145190
X196207Y-132490
X197103Y-138136
X197245Y-178433
X197365Y-185379
X197401Y-104738
X197444Y-103086
X197865Y-181943
X198017Y-189073
X198124Y-99559
X198251Y-104102
X198416Y-94423
X198516Y-160060
X199053Y-109449
X199057Y-184036
X200253Y-121410
X200301Y-134464
X200617Y-141693
X201002Y-102820
X201094Y-93255
X201102Y-103973
X201133Y-181596
X201135Y-106289
X201402Y-116015
X201678Y-180544
X202133Y-82218
X202327Y-85698
X202462Y-112078
X202504Y-157054
X203154Y-100778
X203857Y-123774
X204096Y-136935
X204373Y-114314
X204506Y-125884
X204713Y-112078
X204749Y-99934
X204821Y-184783
X205785Y-181596
X205957Y-180544
X206014Y-165030
X206207Y-86814
X206646Y-82343
X206860Y-161910
X207477Y-185614
X207484Y-102030
X207640Y-77382
X207735Y-123491
X207764Y-146460
X208185Y-80804
X208335Y-69858
X209159Y-86404
X209463Y-193419
X209630Y-144344
X210143Y-120715
X210286Y-115997
X210383Y-141920
X210458Y-191016
X210554Y-194157
X210799Y-149280
X211529Y-81511
X211611Y-94277
X211952Y-74983
X212042Y-79808
X212705Y-159018
X213496Y-60668
X213740Y-93626
X214352Y-112125
X214781Y-191451
X214807Y-162114
X215028Y-83710
X215227Y-122292
X215702Y-82239
X215943Y-73088
X216375Y-116595
X217038Y-118523
X217195Y-57981
X217717Y-175230
X217815Y-125842
X217835Y-124412
X218439Y-158757
X218472Y-143920
X218571Y-126813
X218577Y-122161
X219073Y-145190
X219383Y-172650
X219456Y-121298
X219486Y-123586
X219885Y-184784
X220760Y-183913
X221163Y-98370
X221576Y-182994
X221792Y-154076
X221826Y-91501
X221905Y-185274
X222131Y-150625
X222150Y-188441
X222194Y-175615
X222658Y-144978
X222661Y-133745
X222661Y-122761
X222672Y-140118
X223130Y-174737
X223322Y-63548
X223360Y-181163
X223522Y-97511
X223607Y-121298
X223743Y-92341
X224221Y-70823
X225053Y-114712
X225097Y-147659
X225230Y-180468
X225688Y-110900
X225732Y-165063
X225902Y-123852
X226209Y-163662
X226468Y-159632
X227807Y-162195
X227819Y-178515
X227913Y-98798
X228543Y-92436
X229152Y-191213
X229279Y-179857
X229792Y-129738
X229935Y-164760
X229935Y-170561
X230269Y-123530
X230326Y-147500
X230811Y-124894
X230894Y-168389
X230926Y-131319
X231147Y-113603
X231238Y-114683
X231356Y-190022
X231556Y-185472
X232017Y-144817
X232046Y-93685
X232150Y-146178
X232154Y-97184
X232317Y-150952
X232909Y-108206
X233001Y-188971
X233014Y-117370
X233084Y-106136
X233150Y-100385
X233155Y-99301
X233212Y-127398
X233646Y-149563
X233729Y-98013
X233787Y-91501
X234115Y-102077
X234190Y-181388
X234426Y-143704
X234481Y-144755
X234585Y-114429
X234669Y-61411
X234764Y-93548
X235048Y-128615
X235289Y-95882
X235297Y-150167
X235344Y-182911
X235908Y-76651
X235971Y-142066
X236242Y-164696
X237383Y-161450
X237715Y-163800
X237840Y-99055
X238369Y-111577
X240020Y-111481
X240152Y-65658
X240288Y-54060
X240671Y-144204
X241061Y-52962
X241178Y-182138
X241925Y-122162
X242114Y-156644
X242904Y-135907
X243836Y-80225
X245158Y-102249
X247341Y-131110
X247404Y-162677
X249067Y-145148
X249107Y-142464
X249359Y-181027
X249444Y-184785
X249470Y-110796
X250051Y-73015
X250227Y-142437
X250665Y-158507
X250760Y-166979
X251207Y-85588
X251545Y-118007
X252506Y-151173
X253588Y-108372
X254036Y-145242
X254044Y-157968
X254186Y-150277
X254990Y-179274
X255166Y-183028
X255468Y-116016
X255636Y-111476
X256666Y-112073
X256756Y-83562
X256890Y-114944
X256925Y-80925
X257338Y-89823
X257841Y-146455
X257850Y-164030
X257854Y-144204
X257868Y-153191
X257917Y-108061
X258238Y-160850
X258891Y-170261
X258913Y-125401
X258937Y-71672
X259774Y-70642
X260106Y-116583
X260810Y-119680
X260951Y-106238
X261580Y-76047
X264187Y-166570
X264696Y-107987
X264859Y-105375
X265074Y-112852
X266174Y-73882
X266390Y-151240
X267072Y-90695
X267136Y-165876
X267239Y-154013
X267864Y-105375
X267939Y-154839
X269196Y-73777
X269279Y-158290
X269426Y-112102
X269451Y-113424
X269527Y-168204
X269576Y-169825
X269820Y-84707
X269998Y-81947
X270091Y-147389
X270641Y-173701
X270975Y-107119
X271118Y-116155
X271545Y-130085
X272329Y-76305
X272342Y-80812
X273195Y-85342
X273860Y-155839
X274110Y-82599
X274141Y-65652
X274509Y-127752
X274705Y-71533
X274964Y-122389
X275674Y-127822
X276559Y-88608
X276638Y-128599
X276748Y-151889
X278117Y-107551
X278124Y-141551
X278179Y-159843
X279117Y-93274
X280563Y-112286
X281128Y-170644
X281566Y-108423
X281614Y-104054
X282725Y-76757
X283410Y-159309
X284214Y-68969
X285015Y-160714
X286217Y-171361
X286462Y-179753
X287393Y-152526
X288569Y-146564
X291322Y-144889
X291428Y-156217
X291434Y-149572
X294370Y-146890
X295885Y-89765
X297642Y-94185
X298185Y-110568
X298701Y-104231
X299874Y-150230
X302118Y-140109
X302132Y-143142
X303013Y-133286
X304001Y-155745
X307096Y-133286
X307282Y-136084
X307725Y-156345
X309274Y-134111
X309578Y-121839
X310394Y-117118
X310474Y-63389
X312445Y-112286
X316901Y-121520
X317595Y-152253
X318560Y-124060
X319813Y-136760
X322208Y-152253
X325185Y-130573
X326125Y-92300
X326860Y-157512
X329228Y-71514
X331709Y-174541
X333968Y-111175
X336802Y-141862
X337086Y-139300
X337745Y-137060
X337868Y-126500
X338009Y-134220
X338945Y-131680
X339282Y-113192
X339500Y-128212
X340333Y-113386
X341436Y-140049
X342584Y-138030
X342713Y-107969
X342937Y-132950
X343402Y-178215
X343422Y-123789
X345337Y-102677
X345402Y-147645
X345686Y-110465
X346483Y-165404
X347021Y-50627
X347925Y-178826
X354211Y-184913
X355733Y-114084
X356673Y-113374
X357999Y-162039
X358211Y-115280
X358886Y-163487
X359832Y-110678
X360537Y-160929
X360555Y-193432
X361137Y-163920
X362086Y-100897
X362695Y-106460
X365152Y-106979
X367087Y-174575
X367897Y-173229
X368166Y-126250
X369035Y-139463
X369895Y-138500
X370026Y-151258
T2
X58594Y-173961
X59900Y-62250
X61639Y-73186
X64892Y-119611
X64960Y-150834
X67658Y-151955
X68870Y-138617
X71382Y-181485
X75941Y-146103
X83329Y-120560
X84213Y-135595
X98023Y-71923
X105318Y-144062
X126525Y-64125
X133825Y-67150
X138785Y-154661
X163880Y-146318
X188777Y-68681
X191532Y-186742
X249050Y-67337
X252670Y-181142
X271295Y-148686
X273900Y-159834
X275451Y-134864
X275925Y-92925
X276874Y-172599
X277500Y-90000
X279699Y-75082
X281125Y-90000
X284520Y-74371
X285225Y-84000
X290800Y-80050
X340000Y-86000
X355050Y-86000
X365950Y-86000
X218725Y-187375
X218725Y-189275
T3
X72475Y-122441
X72475Y-124219
X72475Y-125997
X72475Y-127775
X72475Y-129553
X72475Y-131331
X72475Y-133109
X72475Y-134887
X72475Y-136665
X72475Y-138443
X72475Y-140221
X72475Y-141999
X72475Y-143777
X72475Y-145555
X72475Y-147333
X72475Y-149111
X72475Y-150889
X72475Y-152667
X72475Y-154445
X72475Y-156223
X72475Y-158001
X72475Y-159779
X72475Y-161557
X72475Y-163335
X72475Y-165113
X72475Y-166891
X72475Y-168669
X72475Y-170447
X72475Y-172225
X72475Y-174003
X72475Y-175781
X72475Y-177559
X91525Y-122441
X91525Y-124219
X91525Y-125997
X91525Y-127775
X91525Y-129553
X91525Y-131331
X91525Y-133109
X91525Y-134887
X91525Y-136665
X91525Y-138443
X91525Y-140221
X91525Y-141999
X91525Y-143777
X91525Y-145555
X91525Y-147333
X91525Y-149111
X91525Y-150889
X91525Y-152667
X91525Y-154445
X91525Y-156223
X91525Y-158001
X91525Y-159779
X91525Y-161557
X91525Y-163335
X91525Y-165113
X91525Y-166891
X91525Y-168669
X91525Y-170447
X91525Y-172225
X91525Y-174003
X91525Y-175781
X91525Y-177559
T4
X349500Y-170800
X349500Y-173340
X349500Y-175880
X349500Y-178420
X349500Y-180960
X349500Y-183500
X269500Y-117380
X269500Y-125000
X272040Y-117380
X272040Y-125000
X274580Y-117380
X274580Y-125000
X277120Y-117380
X277120Y-125000
X279660Y-117380
X279660Y-125000
X282200Y-117380
X282200Y-125000
X284740Y-117380
X284740Y-125000
X287280Y-117380
X287280Y-125000
X289820Y-117380
X289820Y-125000
X292360Y-117380
X292360Y-125000
X336000Y-97880
X336000Y-105500
X338540Y-97880
X338540Y-105500
X341080Y-97880
X341080Y-105500
X343620Y-97880
X343620Y-105500
X346160Y-97880
X346160Y-105500
X348700Y-97880
X348700Y-105500
X351240Y-97880
X351240Y-105500
X353780Y-97880
X353780Y-105500
X356320Y-97880
X356320Y-105500
X358860Y-97880
X358860Y-105500
X151380Y-99760
X151380Y-102300
X151380Y-104840
X151380Y-107380
X151380Y-109920
X151380Y-112460
X151380Y-115000
X159000Y-99760
X159000Y-102300
X159000Y-104840
X159000Y-107380
X159000Y-109920
X159000Y-112460
X159000Y-115000
X138880Y-124760
X138880Y-127300
X138880Y-129840
X138880Y-132380
X138880Y-134920
X138880Y-137460
X138880Y-140000
X146500Y-124760
X146500Y-127300
X146500Y-129840
X146500Y-132380
X146500Y-134920
X146500Y-137460
X146500Y-140000
X297380Y-136260
X297380Y-138800
X297380Y-141340
X297380Y-143880
X297380Y-146420
X297380Y-148960
X297380Y-151500
X305000Y-136260
X305000Y-138800
X305000Y-141340
X305000Y-143880
X305000Y-146420
X305000Y-148960
X305000Y-151500
X134000Y-79880
X134000Y-87500
X136540Y-79880
X136540Y-87500
X139080Y-79880
X139080Y-87500
X141620Y-79880
X141620Y-87500
X134380Y-152260
X134380Y-154800
X134380Y-157340
X134380Y-159880
X134380Y-162420
X134380Y-164960
X134380Y-167500
X142000Y-152260
X142000Y-154800
X142000Y-157340
X142000Y-159880
X142000Y-162420
X142000Y-164960
X142000Y-167500
X54500Y-186000
X59380Y-186000
X45500Y-169380
X45500Y-177000
X48040Y-169380
X48040Y-177000
X50580Y-169380
X50580Y-177000
X53120Y-169380
X53120Y-177000
X55660Y-169380
X55660Y-177000
X58200Y-169380
X58200Y-177000
X60740Y-169380
X60740Y-177000
X63280Y-169380
X63280Y-177000
X65820Y-169380
X65820Y-177000
X204380Y-161220
X204380Y-163760
X204380Y-166300
X204380Y-168840
X204380Y-171380
X204380Y-173920
X204380Y-176460
X204380Y-179000
X212000Y-161220
X212000Y-163760
X212000Y-166300
X212000Y-168840
X212000Y-171380
X212000Y-173920
X212000Y-176460
X212000Y-179000
X339000Y-163000
X341500Y-163000
X211725Y-186425
X211725Y-190225
X335260Y-113900
X335260Y-116440
X335260Y-118980
X335260Y-121520
X335260Y-124060
X335260Y-126600
X335260Y-129140
X335260Y-131680
X335260Y-134220
X335260Y-136760
X335260Y-139300
X335260Y-141840
X335260Y-144380
X335260Y-146920
X335260Y-149460
X335260Y-152000
X350500Y-113900
X350500Y-116440
X350500Y-118980
X350500Y-121520
X350500Y-124060
X350500Y-126600
X350500Y-129140
X350500Y-131680
X350500Y-134220
X350500Y-136760
X350500Y-139300
X350500Y-141840
X350500Y-144380
X350500Y-146920
X350500Y-149460
X350500Y-152000
X173500Y-91500
X176000Y-91500
X271000Y-167880
X271000Y-175500
X273540Y-167880
X273540Y-175500
X276080Y-167880
X276080Y-175500
X278620Y-167880
X278620Y-175500
X281160Y-167880
X281160Y-175500
X283700Y-167880
X283700Y-175500
X286240Y-167880
X286240Y-175500
X288780Y-167880
X288780Y-175500
X121880Y-152220
X121880Y-154760
X121880Y-157300
X121880Y-159840
X121880Y-162380
X121880Y-164920
X121880Y-167460
X121880Y-170000
X129500Y-152220
X129500Y-154760
X129500Y-157300
X129500Y-159840
X129500Y-162380
X129500Y-164920
X129500Y-167460
X129500Y-170000
X176380Y-99760
X176380Y-102300
X176380Y-104840
X176380Y-107380
X176380Y-109920
X176380Y-112460
X176380Y-115000
X184000Y-99760
X184000Y-102300
X184000Y-104840
X184000Y-107380
X184000Y-109920
X184000Y-112460
X184000Y-115000
X97000Y-128640
X97000Y-131180
X97000Y-133720
X97000Y-136260
X97000Y-138800
X97000Y-141340
X97000Y-143880
X97000Y-146420
X97000Y-148960
X97000Y-151500
X235000Y-63880
X235000Y-71500
X237540Y-63880
X237540Y-71500
X240080Y-63880
X240080Y-71500
X242620Y-63880
X242620Y-71500
X245160Y-63880
X245160Y-71500
X247700Y-63880
X247700Y-71500
X250240Y-63880
X250240Y-71500
X159380Y-152260
X159380Y-154800
X159380Y-157340
X159380Y-159880
X159380Y-162420
X159380Y-164960
X159380Y-167500
X167000Y-152260
X167000Y-154800
X167000Y-157340
X167000Y-159880
X167000Y-162420
X167000Y-164960
X167000Y-167500
X260500Y-190500
X263000Y-190500
X173000Y-75880
X173000Y-83500
X175540Y-75880
X175540Y-83500
X178080Y-75880
X178080Y-83500
X180620Y-75880
X180620Y-83500
X245880Y-160220
X245880Y-162760
X245880Y-165300
X245880Y-167840
X245880Y-170380
X245880Y-172920
X245880Y-175460
X245880Y-178000
X253500Y-160220
X253500Y-162760
X253500Y-165300
X253500Y-167840
X253500Y-170380
X253500Y-172920
X253500Y-175460
X253500Y-178000
X271000Y-154380
X271000Y-162000
X273540Y-154380
X273540Y-162000
X276080Y-154380
X276080Y-162000
X278620Y-154380
X278620Y-162000
X281160Y-154380
X281160Y-162000
X283700Y-154380
X283700Y-162000
X286240Y-154380
X286240Y-162000
X288780Y-154380
X288780Y-162000
X199000Y-63880
X199000Y-71500
X201540Y-63880
X201540Y-71500
X204080Y-63880
X204080Y-71500
X206620Y-63880
X206620Y-71500
X209160Y-63880
X209160Y-71500
X211700Y-63880
X211700Y-71500
X214240Y-63880
X214240Y-71500
X216780Y-63880
X216780Y-71500
X219320Y-63880
X219320Y-71500
X221860Y-63880
X221860Y-71500
X146880Y-152260
X146880Y-154800
X146880Y-157340
X146880Y-159880
X146880Y-162420
X146880Y-164960
X146880Y-167500
X154500Y-152260
X154500Y-154800
X154500Y-157340
X154500Y-159880
X154500Y-162420
X154500Y-164960
X154500Y-167500
X163880Y-99760
X163880Y-102300
X163880Y-104840
X163880Y-107380
X163880Y-109920
X163880Y-112460
X163880Y-115000
X171500Y-99760
X171500Y-102300
X171500Y-104840
X171500Y-107380
X171500Y-109920
X171500Y-112460
X171500Y-115000
X97000Y-155640
X97000Y-158180
X97000Y-160720
X97000Y-163260
X97000Y-165800
X97000Y-168340
X97000Y-170880
X97000Y-173420
X97000Y-175960
X97000Y-178500
X114260Y-96240
X114260Y-98780
X114260Y-101320
X114260Y-103860
X114260Y-106400
X114260Y-108940
X114260Y-111480
X114260Y-114020
X114260Y-116560
X114260Y-119100
X114260Y-121640
X114260Y-124180
X114260Y-126720
X114260Y-129260
X114260Y-131800
X114260Y-134340
X114260Y-136880
X114260Y-139420
X114260Y-141960
X114260Y-144500
X129500Y-96240
X129500Y-98780
X129500Y-101320
X129500Y-103860
X129500Y-106400
X129500Y-108940
X129500Y-111480
X129500Y-114020
X129500Y-116560
X129500Y-119100
X129500Y-121640
X129500Y-124180
X129500Y-126720
X129500Y-129260
X129500Y-131800
X129500Y-134340
X129500Y-136880
X129500Y-139420
X129500Y-141960
X129500Y-144500
X115500Y-177500
X118040Y-177500
X120580Y-177500
X123120Y-177500
X125660Y-177500
X128200Y-177500
X130740Y-177500
X133280Y-177500
X135820Y-177500
X138360Y-177500
X269500Y-102380
X269500Y-110000
X272040Y-102380
X272040Y-110000
X274580Y-102380
X274580Y-110000
X277120Y-102380
X277120Y-110000
X279660Y-102380
X279660Y-110000
X282200Y-102380
X282200Y-110000
X284740Y-102380
X284740Y-110000
X287280Y-102380
X287280Y-110000
X289820Y-102380
X289820Y-110000
X292360Y-102380
X292360Y-110000
X356380Y-170720
X356380Y-173260
X356380Y-175800
X356380Y-178340
X356380Y-180880
X356380Y-183420
X356380Y-185960
X356380Y-188500
X364000Y-170720
X364000Y-173260
X364000Y-175800
X364000Y-178340
X364000Y-180880
X364000Y-183420
X364000Y-185960
X364000Y-188500
X297380Y-160220
X297380Y-162760
X297380Y-165300
X297380Y-167840
X297380Y-170380
X297380Y-172920
X297380Y-175460
X297380Y-178000
X305000Y-160220
X305000Y-162760
X305000Y-165300
X305000Y-167840
X305000Y-170380
X305000Y-172920
X305000Y-175460
X305000Y-178000
X312260Y-113900
X312260Y-116440
X312260Y-118980
X312260Y-121520
X312260Y-124060
X312260Y-126600
X312260Y-129140
X312260Y-131680
X312260Y-134220
X312260Y-136760
X312260Y-139300
X312260Y-141840
X312260Y-144380
X312260Y-146920
X312260Y-149460
X312260Y-152000
X327500Y-113900
X327500Y-116440
X327500Y-118980
X327500Y-121520
X327500Y-124060
X327500Y-126600
X327500Y-129140
X327500Y-131680
X327500Y-134220
X327500Y-136760
X327500Y-139300
X327500Y-141840
X327500Y-144380
X327500Y-146920
X327500Y-149460
X327500Y-152000
X236500Y-96880
X236500Y-104500
X239040Y-96880
X239040Y-104500
X241580Y-96880
X241580Y-104500
X244120Y-96880
X244120Y-104500
X246660Y-96880
X246660Y-104500
X249200Y-96880
X249200Y-104500
X251740Y-96880
X251740Y-104500
X254280Y-96880
X254280Y-104500
X256820Y-96880
X256820Y-104500
X259360Y-96880
X259360Y-104500
X79500Y-184000
X82000Y-184000
X235500Y-110000
X238040Y-110000
X240580Y-110000
X243120Y-110000
X245660Y-110000
X248200Y-110000
X250740Y-110000
X253280Y-110000
X255820Y-110000
X258360Y-110000
X76500Y-114500
X79040Y-114500
X81580Y-114500
X84120Y-114500
X86660Y-114500
X89200Y-114500
X120000Y-82500
X120000Y-85000
X173880Y-162140
X173880Y-164680
X173880Y-167220
X173880Y-169760
X173880Y-172300
X173880Y-174840
X173880Y-177380
X173880Y-179920
X173880Y-182460
X173880Y-185000
X181500Y-162140
X181500Y-164680
X181500Y-167220
X181500Y-169760
X181500Y-172300
X181500Y-174840
X181500Y-177380
X181500Y-179920
X181500Y-182460
X181500Y-185000
X249880Y-117140
X249880Y-119680
X249880Y-122220
X249880Y-124760
X249880Y-127300
X249880Y-129840
X249880Y-132380
X249880Y-134920
X249880Y-137460
X249880Y-140000
X257500Y-117140
X257500Y-119680
X257500Y-122220
X257500Y-124760
X257500Y-127300
X257500Y-129840
X257500Y-132380
X257500Y-134920
X257500Y-137460
X257500Y-140000
X212260Y-100740
X212260Y-103280
X212260Y-105820
X212260Y-108360
X212260Y-110900
X212260Y-113440
X212260Y-115980
X212260Y-118520
X212260Y-121060
X212260Y-123600
X212260Y-126140
X212260Y-128680
X212260Y-131220
X212260Y-133760
X212260Y-136300
X212260Y-138840
X212260Y-141380
X212260Y-143920
X212260Y-146460
X212260Y-149000
X227500Y-100740
X227500Y-103280
X227500Y-105820
X227500Y-108360
X227500Y-110900
X227500Y-113440
X227500Y-115980
X227500Y-118520
X227500Y-121060
X227500Y-123600
X227500Y-126140
X227500Y-128680
X227500Y-131220
X227500Y-133760
X227500Y-136300
X227500Y-138840
X227500Y-141380
X227500Y-143920
X227500Y-146460
X227500Y-149000
X149250Y-66850
X149250Y-69350
X216640Y-79000
X219180Y-79000
X221720Y-79000
X224260Y-79000
X226800Y-79000
X229340Y-79000
X231880Y-79000
X234420Y-79000
X236960Y-79000
X239500Y-79000
X190760Y-100740
X190760Y-103280
X190760Y-105820
X190760Y-108360
X190760Y-110900
X190760Y-113440
X190760Y-115980
X190760Y-118520
X190760Y-121060
X190760Y-123600
X190760Y-126140
X190760Y-128680
X190760Y-131220
X190760Y-133760
X190760Y-136300
X190760Y-138840
X190760Y-141380
X190760Y-143920
X190760Y-146460
X190760Y-149000
X206000Y-100740
X206000Y-103280
X206000Y-105820
X206000Y-108360
X206000Y-110900
X206000Y-113440
X206000Y-115980
X206000Y-118520
X206000Y-121060
X206000Y-123600
X206000Y-126140
X206000Y-128680
X206000Y-131220
X206000Y-133760
X206000Y-136300
X206000Y-138840
X206000Y-141380
X206000Y-143920
X206000Y-146460
X206000Y-149000
X176380Y-124640
X176380Y-127180
X176380Y-129720
X176380Y-132260
X176380Y-134800
X176380Y-137340
X176380Y-139880
X176380Y-142420
X176380Y-144960
X176380Y-147500
X184000Y-124640
X184000Y-127180
X184000Y-129720
X184000Y-132260
X184000Y-134800
X184000Y-137340
X184000Y-139880
X184000Y-142420
X184000Y-144960
X184000Y-147500
X68000Y-93920
X68000Y-96460
X68000Y-99000
X120500Y-184000
X123040Y-184000
X125580Y-184000
X128120Y-184000
X130660Y-184000
X133200Y-184000
X300500Y-97880
X300500Y-105500
X303040Y-97880
X303040Y-105500
X305580Y-97880
X305580Y-105500
X308120Y-97880
X308120Y-105500
X310660Y-97880
X310660Y-105500
X313200Y-97880
X313200Y-105500
X315740Y-97880
X315740Y-105500
X318280Y-97880
X318280Y-105500
X320820Y-97880
X320820Y-105500
X323360Y-97880
X323360Y-105500
X45500Y-157380
X45500Y-165000
X48040Y-157380
X48040Y-165000
X50580Y-157380
X50580Y-165000
X53120Y-157380
X53120Y-165000
X55660Y-157380
X55660Y-165000
X58200Y-157380
X58200Y-165000
X60740Y-157380
X60740Y-165000
X63280Y-157380
X63280Y-165000
X65820Y-157380
X65820Y-165000
X216880Y-161220
X216880Y-163760
X216880Y-166300
X216880Y-168840
X216880Y-171380
X216880Y-173920
X216880Y-176460
X216880Y-179000
X224500Y-161220
X224500Y-163760
X224500Y-166300
X224500Y-168840
X224500Y-171380
X224500Y-173920
X224500Y-176460
X224500Y-179000
X52000Y-108880
X52000Y-116500
X54540Y-108880
X54540Y-116500
X57080Y-108880
X57080Y-116500
X59620Y-108880
X59620Y-116500
X62160Y-108880
X62160Y-116500
X64700Y-108880
X64700Y-116500
X67240Y-108880
X67240Y-116500
X232380Y-160180
X232380Y-162720
X232380Y-165260
X232380Y-167800
X232380Y-170340
X232380Y-172880
X232380Y-175420
X232380Y-177960
X232380Y-180500
X240000Y-160180
X240000Y-162720
X240000Y-165260
X240000Y-167800
X240000Y-170340
X240000Y-172880
X240000Y-175420
X240000Y-177960
X240000Y-180500
X183000Y-70500
X185500Y-70500
X269500Y-131880
X269500Y-139500
X272040Y-131880
X272040Y-139500
X274580Y-131880
X274580Y-139500
X277120Y-131880
X277120Y-139500
X279660Y-131880
X279660Y-139500
X282200Y-131880
X282200Y-139500
X284740Y-131880
X284740Y-139500
X287280Y-131880
X287280Y-139500
X138880Y-99760
X138880Y-102300
X138880Y-104840
X138880Y-107380
X138880Y-109920
X138880Y-112460
X138880Y-115000
X146500Y-99760
X146500Y-102300
X146500Y-104840
X146500Y-107380
X146500Y-109920
X146500Y-112460
X146500Y-115000
X57045Y-125350
X61925Y-125350
X108500Y-82500
X108500Y-85000
X236380Y-117140
X236380Y-119680
X236380Y-122220
X236380Y-124760
X236380Y-127300
X236380Y-129840
X236380Y-132380
X236380Y-134920
X236380Y-137460
X236380Y-140000
X244000Y-117140
X244000Y-119680
X244000Y-122220
X244000Y-124760
X244000Y-127300
X244000Y-129840
X244000Y-132380
X244000Y-134920
X244000Y-137460
X244000Y-140000
X166500Y-91500
X169000Y-91500
X269500Y-97500
X272040Y-97500
X274580Y-97500
X277120Y-97500
X279660Y-97500
X282200Y-97500
X284740Y-97500
X287280Y-97500
X289820Y-97500
X292360Y-97500
X45500Y-144880
X45500Y-152500
X48040Y-144880
X48040Y-152500
X50580Y-144880
X50580Y-152500
X53120Y-144880
X53120Y-152500
X55660Y-144880
X55660Y-152500
X58200Y-144880
X58200Y-152500
X60740Y-144880
X60740Y-152500
X63280Y-144880
X63280Y-152500
X65820Y-144880
X65820Y-152500
X107000Y-120140
X107000Y-122680
X107000Y-125220
X107000Y-127760
X107000Y-130300
X107000Y-132840
X107000Y-135380
X107000Y-137920
X107000Y-140460
X107000Y-143000
X168500Y-70000
X171040Y-70000
X173580Y-70000
X260500Y-179000
X263000Y-179000
X151380Y-124760
X151380Y-127300
X151380Y-129840
X151380Y-132380
X151380Y-134920
X151380Y-137460
X151380Y-140000
X159000Y-124760
X159000Y-127300
X159000Y-129840
X159000Y-132380
X159000Y-134920
X159000Y-137460
X159000Y-140000
X271000Y-181380
X271000Y-189000
X273540Y-181380
X273540Y-189000
X276080Y-181380
X276080Y-189000
X278620Y-181380
X278620Y-189000
X281160Y-181380
X281160Y-189000
X283700Y-181380
X283700Y-189000
X286240Y-181380
X286240Y-189000
X288780Y-181380
X288780Y-189000
X163880Y-124760
X163880Y-127300
X163880Y-129840
X163880Y-132380
X163880Y-134920
X163880Y-137460
X163880Y-140000
X171500Y-124760
X171500Y-127300
X171500Y-129840
X171500Y-132380
X171500Y-134920
X171500Y-137460
X171500Y-140000
X180500Y-91500
X183000Y-91500
X109380Y-152220
X109380Y-154760
X109380Y-157300
X109380Y-159840
X109380Y-162380
X109380Y-164920
X109380Y-167460
X109380Y-170000
X117000Y-152220
X117000Y-154760
X117000Y-157300
X117000Y-159840
X117000Y-162380
X117000Y-164920
X117000Y-167460
X117000Y-170000
X103500Y-106000
X103500Y-108500
X187500Y-91500
X190000Y-91500
X187880Y-162140
X187880Y-164680
X187880Y-167220
X187880Y-169760
X187880Y-172300
X187880Y-174840
X187880Y-177380
X187880Y-179920
X187880Y-182460
X187880Y-185000
X195500Y-162140
X195500Y-164680
X195500Y-167220
X195500Y-169760
X195500Y-172300
X195500Y-174840
X195500Y-177380
X195500Y-179920
X195500Y-182460
X195500Y-185000
X45500Y-132380
X45500Y-140000
X48040Y-132380
X48040Y-140000
X50580Y-132380
X50580Y-140000
X53120Y-132380
X53120Y-140000
X55660Y-132380
X55660Y-140000
X58200Y-132380
X58200Y-140000
X60740Y-132380
X60740Y-140000
X63280Y-132380
X63280Y-140000
X65820Y-132380
X65820Y-140000
T5
X80030Y-89420
X80030Y-99580
X82570Y-89420
X82570Y-99580
X85110Y-89420
X85110Y-99580
X87650Y-89420
X87650Y-99580
X90190Y-89420
X90190Y-99580
X92730Y-89420
X92730Y-99580
X95270Y-89420
X95270Y-99580
X97810Y-89420
X97810Y-99580
X100350Y-89420
X100350Y-99580
X102890Y-89420
X102890Y-99580
X105430Y-89420
X105430Y-99580
X107970Y-89420
X107970Y-99580
X193040Y-48260
X193040Y-55880
X193040Y-58420
X198120Y-48260
X198120Y-55880
X198120Y-58420
T6
X123600Y-54220
X123600Y-56720
X130400Y-54220
X130400Y-56720
T7
X80000Y-70000
X80000Y-75000
X250975Y-185455
X250975Y-187995
X250975Y-190535
X250975Y-193075
X140000Y-69000
X140000Y-74000
X94000Y-115000
X96540Y-115000
X99080Y-115000
X92000Y-70000
X92000Y-75000
X364460Y-109740
X364460Y-112280
X364460Y-114820
X364460Y-117360
X364460Y-119900
X364460Y-122440
X364460Y-124980
X364460Y-127520
X364460Y-130060
X364460Y-132600
X364460Y-135140
X364460Y-137680
X364460Y-140220
X364460Y-142760
X364460Y-145300
X364460Y-147840
X364460Y-150380
X364460Y-152920
X364460Y-155460
X364460Y-158000
X367000Y-109740
X367000Y-112280
X367000Y-114820
X367000Y-117360
X367000Y-119900
X367000Y-122440
X367000Y-124980
X367000Y-127520
X367000Y-130060
X367000Y-132600
X367000Y-135140
X367000Y-137680
X367000Y-140220
X367000Y-142760
X367000Y-145300
X367000Y-147840
X367000Y-150380
X367000Y-152920
X367000Y-155460
X367000Y-158000
X147500Y-187500
X148885Y-190340
X150270Y-187500
X151655Y-190340
X153040Y-187500
X154425Y-190340
X155810Y-187500
X157195Y-190340
X158580Y-187500
X298500Y-127185
X298500Y-129725
X301040Y-127185
X301040Y-129725
X303580Y-127185
X303580Y-129725
X116000Y-70000
X116000Y-75000
X219220Y-87000
X219220Y-89540
X221760Y-87000
X221760Y-89540
X224300Y-87000
X224300Y-89540
X226840Y-87000
X226840Y-89540
X229380Y-87000
X229380Y-89540
X231920Y-87000
X231920Y-89540
X234460Y-87000
X234460Y-89540
X237000Y-87000
X237000Y-89540
X128000Y-69000
X128000Y-74000
X95500Y-187500
X96885Y-190340
X98270Y-187500
X99655Y-190340
X101040Y-187500
X102425Y-190340
X103810Y-187500
X105195Y-190340
X106580Y-187500
X102000Y-136520
X102000Y-139060
X102000Y-141600
X102000Y-144140
X102000Y-146680
X102000Y-149220
X102000Y-151760
X102000Y-154300
X102000Y-156840
X102000Y-159380
X102000Y-161920
X102000Y-164460
X102000Y-167000
X104000Y-70000
X104000Y-75000
X67125Y-104900
X69665Y-104900
X72205Y-104900
X104000Y-115000
X106540Y-115000
X109080Y-115000
X134500Y-106460
X134500Y-109000
X97000Y-123500
X99540Y-123500
X102080Y-123500
X45000Y-77475
X45000Y-82475
X50500Y-87000
X50500Y-92000
X54000Y-80000
X59000Y-80000
X349000Y-160460
X349000Y-163000
X351540Y-160460
X351540Y-163000
X354080Y-160460
X354080Y-163000
T8
X288290Y-54610
X288290Y-59690
X290830Y-54610
X290830Y-59690
X293370Y-54610
X293370Y-59690
X295910Y-54610
X295910Y-59690
X298450Y-54610
X298450Y-59690
X300990Y-54610
X300990Y-59690
X303530Y-54610
X303530Y-59690
X306070Y-54610
X306070Y-59690
X308610Y-54610
X308610Y-59690
X311150Y-54610
X311150Y-59690
X313690Y-54610
X313690Y-59690
X316230Y-54610
X316230Y-59690
X318770Y-54610
X318770Y-59690
X321310Y-54610
X321310Y-59690
X323850Y-54610
X323850Y-59690
X326390Y-54610
X326390Y-59690
X328930Y-54610
X328930Y-59690
X331470Y-54610
X331470Y-59690
X334010Y-54610
X334010Y-59690
X336550Y-54610
X336550Y-59690
X339090Y-54610
X339090Y-59690
X341630Y-54610
X341630Y-59690
X344170Y-54610
X344170Y-59690
X346710Y-54610
X346710Y-59690
X349250Y-54610
X349250Y-59690
X311000Y-180000
X330999Y-180000
X288290Y-77470
X288290Y-82550
X290830Y-77470
X290830Y-82550
X293370Y-77470
X293370Y-82550
X295910Y-77470
X295910Y-82550
X298450Y-77470
X298450Y-82550
X300990Y-77470
X300990Y-82550
X303530Y-77470
X303530Y-82550
X306070Y-77470
X306070Y-82550
X308610Y-77470
X308610Y-82550
X311150Y-77470
X311150Y-82550
X313690Y-77470
X313690Y-82550
X316230Y-77470
X316230Y-82550
X318770Y-77470
X318770Y-82550
X321310Y-77470
X321310Y-82550
X323850Y-77470
X323850Y-82550
X326390Y-77470
X326390Y-82550
X328930Y-77470
X328930Y-82550
X331470Y-77470
X331470Y-82550
X334010Y-77470
X334010Y-82550
X336550Y-77470
X336550Y-82550
X339090Y-77470
X339090Y-82550
X341630Y-77470
X341630Y-82550
X344170Y-77470
X344170Y-82550
X346710Y-77470
X346710Y-82550
X349250Y-77470
X349250Y-82550
T9
X222120Y-54175
X222120Y-58465
X224280Y-54175
X224280Y-58465
X226440Y-54175
X226440Y-58465
X228600Y-54175
X228600Y-58465
X230760Y-54175
X230760Y-58465
X232920Y-54175
X232920Y-58465
X235080Y-54175
X235080Y-58465
T10
X248500Y-77000
X248500Y-79540
X41500Y-112000
X44040Y-112000
X136000Y-92500
X136000Y-95040
X43000Y-67500
X45540Y-67500
X48080Y-67500
X50620Y-67500
X53160Y-67500
X56500Y-100500
X59040Y-100500
X61580Y-100500
X196500Y-90500
X199040Y-90500
X111500Y-61000
X114040Y-61000
X116580Y-61000
X41500Y-100500
X44040Y-100500
X49000Y-100500
X51540Y-100500
X204500Y-90500
X207040Y-90500
X140460Y-60000
X143000Y-60000
X68000Y-86000
X70540Y-86000
X73080Y-86000
X93500Y-62500
X96040Y-62500
X98580Y-62500
X101120Y-62500
X103660Y-62500
T11
X68700Y-57720
X68700Y-62720
X71200Y-48220
X71200Y-60220
X76200Y-57720
X76200Y-62720
X81200Y-48220
X81200Y-60220
X83700Y-57720
X83700Y-62720
X170300Y-57720
X170300Y-62720
X172800Y-48220
X172800Y-60220
X177800Y-57720
X177800Y-62720
X182800Y-48220
X182800Y-60220
X185300Y-57720
X185300Y-62720
T12
X101600Y-54610
X152400Y-54610
T13
X120250Y-51220
X127000Y-50420
X133750Y-51220
T14
X96520Y-54610
X101600Y-49530
X106680Y-54610
X147320Y-54610
X152400Y-49530
X157480Y-54610
T15
X68580Y-189230
X279718Y-80010
X357822Y-57150
X203200Y-189230
X68580Y-77470
X358140Y-145415
X203200Y-77470
X357822Y-80010
X279718Y-57150
X307340Y-189230
X328930Y-107950
T16
X210600Y-56320
X246600Y-56320
T17
X140540Y-187800
X165540Y-187800
X88540Y-187800
X113540Y-187800
T7
G00X46100Y-55600
M15
G01X46100Y-57600
M16
G05
G00X51800Y-53600
M15
G01X49800Y-53600
M16
G05
G00X51800Y-59600
M15
G01X49800Y-59600
M16
G05
T0
M30
