M48
METRIC,TZ
T1C0.400
T2C0.500
T3C0.635
T4C0.800
T5C0.813
T6C0.889
T7C1.000
T8C1.016
T9C1.041
T10C1.190
T11C1.500
T12C1.575
T13C2.291
T14C2.667
T15C3.000
T16C3.051
T17C3.200
%
G90
G05
T1
X43200Y-134621
X44700Y-162709
X49847Y-146128
X54988Y-147475
X57546Y-162492
X59072Y-163263
X59712Y-175972
X59986Y-183451
X63282Y-166849
X67755Y-179776
X68152Y-147734
X68168Y-155151
X68296Y-142927
X68964Y-135429
X69247Y-156744
X69519Y-151071
X70155Y-149345
X70579Y-157678
X70796Y-158991
X70843Y-150046
X71213Y-177952
X72789Y-120693
X74616Y-162926
X74653Y-116269
X80746Y-120735
X82565Y-110316
X84210Y-180716
X85625Y-168791
X85950Y-74346
X86303Y-53016
X86922Y-124856
X87686Y-123620
X88147Y-130641
X88299Y-121935
X88454Y-170447
X89098Y-129865
X90591Y-77922
X90592Y-141321
X98309Y-161990
X101751Y-110255
X106453Y-155547
X106725Y-176275
X107547Y-166352
X108609Y-121172
X109370Y-98420
X109949Y-171821
X111414Y-135610
X111924Y-172256
X112558Y-125462
X112708Y-130558
X112767Y-146289
X114004Y-157300
X118660Y-134340
X119058Y-119550
X119388Y-175721
X119473Y-96221
X120432Y-146792
X120600Y-141176
X121444Y-143834
X121574Y-141842
X122081Y-116167
X122660Y-111480
X122660Y-113994
X123032Y-136792
X123402Y-146016
X123465Y-106400
X123465Y-107670
X123468Y-143350
X124044Y-135611
X124417Y-143769
X125155Y-101320
X125156Y-98780
X126031Y-96240
X126569Y-143923
X126645Y-97396
X127694Y-165920
X127814Y-112147
X128002Y-125837
X128326Y-140690
X130314Y-115335
X130415Y-181244
X131180Y-169749
X131489Y-121523
X133066Y-107670
X133231Y-173400
X133362Y-91717
X133636Y-123772
X133889Y-120033
X135667Y-116260
X136208Y-145292
X136389Y-124673
X136876Y-118458
X137300Y-100252
X137640Y-152260
X137880Y-159880
X139546Y-122133
X139553Y-93564
X140988Y-163690
X142151Y-102410
X142653Y-127205
X143236Y-128525
X143559Y-72480
X143632Y-108339
X143661Y-91178
X144914Y-102668
X145034Y-172445
X146947Y-118506
X146964Y-173088
X147569Y-82385
X147878Y-172326
X148502Y-147687
X148591Y-107570
X148745Y-140000
X149044Y-157878
X150072Y-142637
X150166Y-98535
X152052Y-163973
X152894Y-125985
X153523Y-69471
X153955Y-91956
X153965Y-78673
X155282Y-92731
X155694Y-78868
X156685Y-98535
X157172Y-130154
X157349Y-159880
X159763Y-148744
X160006Y-125985
X160086Y-143396
X160179Y-117834
X160324Y-122845
X160858Y-148786
X161300Y-120725
X161618Y-146230
X162467Y-126927
X162829Y-80690
X164380Y-177380
X164602Y-167323
X164943Y-155984
X165463Y-102935
X165778Y-97163
X166581Y-110533
X166835Y-84052
X167678Y-180996
X167930Y-183194
X168075Y-126008
X168104Y-143396
X168794Y-174437
X169682Y-107577
X169754Y-130279
X170013Y-81373
X170231Y-179127
X170239Y-180551
X170747Y-151992
X170754Y-172283
X171134Y-173437
X171347Y-144960
X171496Y-181153
X171686Y-171789
X171822Y-172749
X171838Y-161150
X172006Y-121195
X172223Y-182535
X172397Y-153395
X172547Y-156565
X172879Y-173301
X172989Y-178583
X173225Y-90031
X173310Y-158289
X174729Y-133226
X175621Y-171954
X175648Y-159257
X175861Y-185013
X176118Y-187878
X176437Y-74694
X176438Y-156387
X176510Y-163915
X176531Y-177874
X176545Y-88883
X176914Y-179426
X177448Y-156446
X177722Y-87499
X177885Y-162628
X178065Y-112409
X178099Y-148312
X178292Y-111336
X178790Y-163915
X178995Y-180202
X179013Y-116260
X179089Y-161930
X179146Y-134800
X179234Y-74706
X179401Y-160980
X179602Y-127180
X179878Y-163915
X180441Y-101075
X181085Y-151507
X181609Y-117023
X181885Y-115449
X182019Y-104323
X182728Y-117049
X183135Y-177228
X183204Y-122621
X183398Y-84651
X184384Y-160164
X186070Y-176441
X186186Y-124083
X186659Y-113859
X187264Y-137547
X187485Y-134800
X187580Y-150410
X187800Y-74719
X187817Y-101075
X187849Y-122419
X187873Y-147577
X188144Y-106981
X188613Y-154321
X188962Y-129995
X188973Y-157673
X189322Y-153408
X189354Y-149331
X189880Y-177382
X190189Y-159831
X190257Y-164748
X190602Y-154321
X190841Y-67630
X190850Y-177380
X190883Y-176167
X190914Y-157072
X191813Y-112125
X191989Y-135372
X192421Y-163931
X192614Y-107432
X192953Y-91977
X193284Y-134524
X193576Y-185526
X193885Y-118645
X194059Y-169760
X194208Y-175784
X194485Y-131129
X194674Y-115980
X194981Y-187878
X195612Y-88633
X196141Y-79871
X197068Y-164563
X197210Y-102712
X197929Y-175415
X197964Y-179437
X198030Y-155421
X198197Y-153436
X198333Y-77156
X198567Y-170053
X198915Y-104172
X199095Y-112790
X199686Y-141380
X199783Y-157604
X199878Y-119790
X200177Y-113566
X200551Y-80484
X200690Y-108524
X201075Y-164563
X201569Y-168067
X201692Y-138262
X201834Y-97414
X202385Y-140065
X202759Y-103330
X202839Y-109532
X202964Y-117841
X203176Y-145221
X203769Y-61927
X203799Y-129454
X203969Y-149301
X203971Y-122809
X204153Y-87042
X204253Y-118057
X204435Y-100553
X204878Y-180987
X205075Y-112170
X205431Y-84877
X205588Y-159734
X205933Y-168786
X207493Y-78736
X207672Y-151467
X207749Y-137570
X207850Y-79709
X208728Y-149073
X208934Y-115781
X209343Y-167135
X209365Y-146460
X209376Y-170803
X209401Y-158168
X210412Y-113440
X210468Y-158759
X210632Y-118370
X211334Y-120003
X211451Y-96538
X211458Y-84877
X212399Y-151829
X212990Y-184296
X213054Y-162596
X213072Y-158782
X213295Y-82472
X213330Y-83729
X213340Y-185891
X213936Y-148606
X214058Y-87412
X214293Y-136866
X214481Y-117225
X215475Y-126883
X215498Y-140850
X216482Y-126508
X216605Y-114987
X217072Y-75178
X217506Y-66188
X217954Y-77051
X218159Y-141970
X218678Y-157829
X218797Y-125568
X218882Y-123600
X219647Y-111394
X219658Y-118160
X219777Y-149638
X219805Y-80507
X220426Y-95955
X220427Y-185337
X221012Y-129916
X221676Y-97414
X221693Y-182123
X222561Y-100573
X222606Y-157158
X222682Y-96501
X222894Y-185574
X223060Y-182573
X223526Y-70442
X223939Y-149632
X224167Y-158638
X224193Y-92752
X224577Y-129905
X225349Y-126508
X225663Y-160396
X227286Y-92965
X227295Y-191665
X228132Y-169095
X228413Y-92382
X228614Y-167610
X228947Y-165521
X229228Y-124827
X229373Y-91977
X229659Y-140352
X229668Y-133453
X229721Y-120369
X229927Y-70442
X230260Y-167165
X230321Y-121319
X230330Y-130699
X230573Y-138815
X230774Y-178005
X231144Y-84565
X231658Y-123018
X232313Y-140775
X232626Y-96159
X233098Y-133453
X233157Y-100075
X233238Y-120369
X233711Y-138918
X233800Y-170620
X233818Y-167827
X234031Y-127410
X234521Y-118365
X234576Y-168451
X234821Y-139997
X235072Y-148446
X235721Y-154050
X236424Y-83618
X236514Y-74387
X238089Y-137185
X238716Y-65137
X239134Y-115324
X240018Y-94303
X240035Y-148446
X240651Y-84918
X241972Y-150983
X242363Y-169815
X242740Y-156382
X243080Y-116054
X243287Y-174445
X243536Y-156966
X243698Y-181645
X243771Y-74576
X246017Y-100986
X246247Y-124760
X246878Y-132380
X246885Y-111066
X248169Y-92237
X248272Y-49825
X248319Y-126030
X248408Y-138060
X248424Y-165107
X248841Y-159738
X249327Y-143312
X249478Y-185223
X251568Y-108074
X251700Y-75920
X251704Y-182087
X251890Y-170251
X252651Y-180999
X253638Y-182884
X254236Y-116680
X254868Y-108851
X255394Y-151790
X255835Y-142767
X257487Y-60610
X258090Y-103669
X258629Y-126311
X258809Y-75144
X259289Y-124131
X259410Y-166903
X259537Y-171235
X259544Y-91096
X259673Y-161152
X260024Y-112526
X260430Y-106274
X260599Y-149471
X260623Y-82703
X260689Y-123490
X261331Y-158343
X261351Y-153227
X261428Y-139500
X261573Y-105206
X261840Y-146821
X262041Y-106131
X262288Y-171557
X262531Y-151790
X262674Y-130941
X263080Y-111343
X263251Y-157381
X263318Y-109662
X263428Y-67926
X264257Y-183890
X264389Y-165166
X264412Y-118605
X264474Y-163314
X264813Y-132921
X264972Y-108058
X265189Y-135415
X265516Y-173112
X265516Y-187471
X266256Y-66693
X266489Y-72057
X267086Y-102610
X267129Y-90348
X267164Y-74793
X267273Y-107860
X267667Y-162210
X268207Y-165411
X268240Y-174843
X268549Y-158842
X268729Y-71281
X269834Y-151191
X269874Y-81344
X270130Y-79540
X270770Y-119552
X271586Y-130327
X271841Y-169949
X272043Y-108581
X272312Y-112923
X272873Y-82694
X272898Y-151191
X274403Y-118889
X276324Y-172332
X276936Y-107196
X277023Y-72647
X277170Y-127036
X278534Y-71792
X279163Y-177174
X280513Y-142419
X280536Y-183890
X280709Y-93949
X281049Y-157796
X281289Y-140826
X282138Y-141601
X282975Y-164353
X283086Y-68658
X284178Y-142964
X284300Y-64798
X284320Y-183628
X285357Y-184665
X286023Y-163536
X286074Y-60197
X286900Y-59660
X287186Y-165411
X288006Y-173731
X288389Y-143844
X288431Y-129398
X288841Y-150426
X289299Y-147675
X289878Y-156715
X290672Y-135137
X291009Y-155511
X291125Y-143688
X291433Y-105182
X292025Y-80178
X292089Y-84968
X292440Y-145644
X292503Y-105832
X293009Y-149051
X293855Y-102347
X295032Y-133584
X295975Y-166570
X296868Y-106869
X297345Y-154354
X298415Y-86568
X299221Y-76026
X299568Y-141340
X299753Y-87902
X299882Y-146420
X301380Y-149859
X301514Y-95102
X301855Y-93623
X302579Y-109297
X302747Y-159520
X303301Y-173742
X303585Y-148810
X303637Y-158571
X306428Y-149313
X306712Y-169065
X306771Y-126600
X307739Y-133833
X307952Y-143880
X309806Y-117412
X310035Y-116022
X311074Y-75324
X314647Y-113124
X314736Y-118980
X316179Y-121520
X316451Y-140174
X316523Y-104275
X317568Y-118203
X317596Y-169159
X317721Y-152198
X318101Y-111554
X318624Y-134103
X320904Y-112930
X321096Y-101696
X321276Y-118203
X321943Y-127749
X327670Y-169159
X331428Y-87212
X331476Y-166570
X331544Y-71792
X332892Y-149846
X336648Y-151187
X336668Y-121432
X337615Y-68302
X338792Y-145940
X339577Y-147397
X339804Y-143910
X340496Y-141759
X341075Y-86600
X342862Y-140615
X342901Y-113141
X343744Y-185180
X344249Y-111770
X344968Y-180536
X345501Y-112215
X345966Y-156156
X346586Y-100021
X346847Y-153427
X347715Y-180070
X348430Y-111631
X348700Y-109464
X349828Y-155110
X350008Y-109455
X350556Y-110250
X351300Y-100620
X351946Y-113156
X352210Y-141430
X352489Y-79297
X352510Y-145695
X352628Y-144470
X353040Y-167957
X353208Y-186209
X353702Y-145623
X353780Y-194180
X354004Y-111070
X354496Y-165439
X354690Y-113894
X355278Y-168300
X355307Y-104514
X356013Y-164983
X356420Y-152147
X356805Y-128803
X357158Y-152941
X357198Y-138877
X357709Y-163829
X358423Y-154753
X358920Y-129669
X359294Y-136760
X359294Y-139098
X359592Y-155877
X359600Y-162537
X359620Y-123413
X359843Y-115913
X359844Y-121341
X359913Y-108512
X360064Y-167240
X360072Y-111485
X360727Y-161428
X360891Y-180880
X361287Y-118980
X361863Y-110021
X362248Y-162949
X362614Y-164500
X363480Y-164978
X364233Y-112595
X364274Y-191833
X365243Y-113462
X368773Y-168471
X369363Y-152050
X369550Y-166526
X369766Y-143552
X370151Y-145545
T2
X39775Y-61575
X57958Y-148677
X63349Y-159623
X75309Y-85974
X81942Y-180465
X101737Y-80998
X113013Y-164950
X155275Y-95300
X167825Y-94925
X167825Y-97625
X206698Y-166587
X223508Y-97339
X237171Y-69322
X238744Y-141860
X242131Y-95278
X261190Y-137576
X267900Y-141600
X272739Y-137576
X276244Y-170290
X282973Y-50999
X339000Y-176550
X339000Y-187925
X355075Y-90825
X362150Y-86550
X218725Y-187375
X218725Y-189275
T3
X72475Y-122441
X72475Y-124219
X72475Y-125997
X72475Y-127775
X72475Y-129553
X72475Y-131331
X72475Y-133109
X72475Y-134887
X72475Y-136665
X72475Y-138443
X72475Y-140221
X72475Y-141999
X72475Y-143777
X72475Y-145555
X72475Y-147333
X72475Y-149111
X72475Y-150889
X72475Y-152667
X72475Y-154445
X72475Y-156223
X72475Y-158001
X72475Y-159779
X72475Y-161557
X72475Y-163335
X72475Y-165113
X72475Y-166891
X72475Y-168669
X72475Y-170447
X72475Y-172225
X72475Y-174003
X72475Y-175781
X72475Y-177559
X91525Y-122441
X91525Y-124219
X91525Y-125997
X91525Y-127775
X91525Y-129553
X91525Y-131331
X91525Y-133109
X91525Y-134887
X91525Y-136665
X91525Y-138443
X91525Y-140221
X91525Y-141999
X91525Y-143777
X91525Y-145555
X91525Y-147333
X91525Y-149111
X91525Y-150889
X91525Y-152667
X91525Y-154445
X91525Y-156223
X91525Y-158001
X91525Y-159779
X91525Y-161557
X91525Y-163335
X91525Y-165113
X91525Y-166891
X91525Y-168669
X91525Y-170447
X91525Y-172225
X91525Y-174003
X91525Y-175781
X91525Y-177559
T4
X103500Y-106000
X103500Y-108500
X176380Y-124640
X176380Y-127180
X176380Y-129720
X176380Y-132260
X176380Y-134800
X176380Y-137340
X176380Y-139880
X176380Y-142420
X176380Y-144960
X176380Y-147500
X184000Y-124640
X184000Y-127180
X184000Y-129720
X184000Y-132260
X184000Y-134800
X184000Y-137340
X184000Y-139880
X184000Y-142420
X184000Y-144960
X184000Y-147500
X149250Y-66850
X149250Y-69350
X146880Y-152260
X146880Y-154800
X146880Y-157340
X146880Y-159880
X146880Y-162420
X146880Y-164960
X146880Y-167500
X154500Y-152260
X154500Y-154800
X154500Y-157340
X154500Y-159880
X154500Y-162420
X154500Y-164960
X154500Y-167500
X236500Y-96880
X236500Y-104500
X239040Y-96880
X239040Y-104500
X241580Y-96880
X241580Y-104500
X244120Y-96880
X244120Y-104500
X246660Y-96880
X246660Y-104500
X249200Y-96880
X249200Y-104500
X251740Y-96880
X251740Y-104500
X254280Y-96880
X254280Y-104500
X256820Y-96880
X256820Y-104500
X259360Y-96880
X259360Y-104500
X97000Y-128640
X97000Y-131180
X97000Y-133720
X97000Y-136260
X97000Y-138800
X97000Y-141340
X97000Y-143880
X97000Y-146420
X97000Y-148960
X97000Y-151500
X97000Y-155640
X97000Y-158180
X97000Y-160720
X97000Y-163260
X97000Y-165800
X97000Y-168340
X97000Y-170880
X97000Y-173420
X97000Y-175960
X97000Y-178500
X168500Y-70000
X171040Y-70000
X173580Y-70000
X45500Y-169380
X45500Y-177000
X48040Y-169380
X48040Y-177000
X50580Y-169380
X50580Y-177000
X53120Y-169380
X53120Y-177000
X55660Y-169380
X55660Y-177000
X58200Y-169380
X58200Y-177000
X60740Y-169380
X60740Y-177000
X63280Y-169380
X63280Y-177000
X65820Y-169380
X65820Y-177000
X76500Y-114500
X79040Y-114500
X81580Y-114500
X84120Y-114500
X86660Y-114500
X89200Y-114500
X114260Y-96240
X114260Y-98780
X114260Y-101320
X114260Y-103860
X114260Y-106400
X114260Y-108940
X114260Y-111480
X114260Y-114020
X114260Y-116560
X114260Y-119100
X114260Y-121640
X114260Y-124180
X114260Y-126720
X114260Y-129260
X114260Y-131800
X114260Y-134340
X114260Y-136880
X114260Y-139420
X114260Y-141960
X114260Y-144500
X129500Y-96240
X129500Y-98780
X129500Y-101320
X129500Y-103860
X129500Y-106400
X129500Y-108940
X129500Y-111480
X129500Y-114020
X129500Y-116560
X129500Y-119100
X129500Y-121640
X129500Y-124180
X129500Y-126720
X129500Y-129260
X129500Y-131800
X129500Y-134340
X129500Y-136880
X129500Y-139420
X129500Y-141960
X129500Y-144500
X336000Y-97880
X336000Y-105500
X338540Y-97880
X338540Y-105500
X341080Y-97880
X341080Y-105500
X343620Y-97880
X343620Y-105500
X346160Y-97880
X346160Y-105500
X348700Y-97880
X348700Y-105500
X351240Y-97880
X351240Y-105500
X353780Y-97880
X353780Y-105500
X356320Y-97880
X356320Y-105500
X358860Y-97880
X358860Y-105500
X183000Y-70500
X185500Y-70500
X297380Y-136260
X297380Y-138800
X297380Y-141340
X297380Y-143880
X297380Y-146420
X297380Y-148960
X297380Y-151500
X305000Y-136260
X305000Y-138800
X305000Y-141340
X305000Y-143880
X305000Y-146420
X305000Y-148960
X305000Y-151500
X138880Y-124760
X138880Y-127300
X138880Y-129840
X138880Y-132380
X138880Y-134920
X138880Y-137460
X138880Y-140000
X146500Y-124760
X146500Y-127300
X146500Y-129840
X146500Y-132380
X146500Y-134920
X146500Y-137460
X146500Y-140000
X52000Y-108880
X52000Y-116500
X54540Y-108880
X54540Y-116500
X57080Y-108880
X57080Y-116500
X59620Y-108880
X59620Y-116500
X62160Y-108880
X62160Y-116500
X64700Y-108880
X64700Y-116500
X67240Y-108880
X67240Y-116500
X121880Y-152220
X121880Y-154760
X121880Y-157300
X121880Y-159840
X121880Y-162380
X121880Y-164920
X121880Y-167460
X121880Y-170000
X129500Y-152220
X129500Y-154760
X129500Y-157300
X129500Y-159840
X129500Y-162380
X129500Y-164920
X129500Y-167460
X129500Y-170000
X216640Y-79000
X219180Y-79000
X221720Y-79000
X224260Y-79000
X226800Y-79000
X229340Y-79000
X231880Y-79000
X234420Y-79000
X236960Y-79000
X239500Y-79000
X107000Y-120140
X107000Y-122680
X107000Y-125220
X107000Y-127760
X107000Y-130300
X107000Y-132840
X107000Y-135380
X107000Y-137920
X107000Y-140460
X107000Y-143000
X264000Y-190500
X266500Y-190500
X300500Y-97880
X300500Y-105500
X303040Y-97880
X303040Y-105500
X305580Y-97880
X305580Y-105500
X308120Y-97880
X308120Y-105500
X310660Y-97880
X310660Y-105500
X313200Y-97880
X313200Y-105500
X315740Y-97880
X315740Y-105500
X318280Y-97880
X318280Y-105500
X320820Y-97880
X320820Y-105500
X323360Y-97880
X323360Y-105500
X120000Y-82500
X120000Y-85000
X187500Y-91500
X190000Y-91500
X269500Y-131880
X269500Y-139500
X272040Y-131880
X272040Y-139500
X274580Y-131880
X274580Y-139500
X277120Y-131880
X277120Y-139500
X279660Y-131880
X279660Y-139500
X282200Y-131880
X282200Y-139500
X284740Y-131880
X284740Y-139500
X287280Y-131880
X287280Y-139500
X297380Y-160220
X297380Y-162760
X297380Y-165300
X297380Y-167840
X297380Y-170380
X297380Y-172920
X297380Y-175460
X297380Y-178000
X305000Y-160220
X305000Y-162760
X305000Y-165300
X305000Y-167840
X305000Y-170380
X305000Y-172920
X305000Y-175460
X305000Y-178000
X159380Y-152260
X159380Y-154800
X159380Y-157340
X159380Y-159880
X159380Y-162420
X159380Y-164960
X159380Y-167500
X167000Y-152260
X167000Y-154800
X167000Y-157340
X167000Y-159880
X167000Y-162420
X167000Y-164960
X167000Y-167500
X212260Y-100740
X212260Y-103280
X212260Y-105820
X212260Y-108360
X212260Y-110900
X212260Y-113440
X212260Y-115980
X212260Y-118520
X212260Y-121060
X212260Y-123600
X212260Y-126140
X212260Y-128680
X212260Y-131220
X212260Y-133760
X212260Y-136300
X212260Y-138840
X212260Y-141380
X212260Y-143920
X212260Y-146460
X212260Y-149000
X227500Y-100740
X227500Y-103280
X227500Y-105820
X227500Y-108360
X227500Y-110900
X227500Y-113440
X227500Y-115980
X227500Y-118520
X227500Y-121060
X227500Y-123600
X227500Y-126140
X227500Y-128680
X227500Y-131220
X227500Y-133760
X227500Y-136300
X227500Y-138840
X227500Y-141380
X227500Y-143920
X227500Y-146460
X227500Y-149000
X115500Y-177500
X118040Y-177500
X120580Y-177500
X123120Y-177500
X125660Y-177500
X128200Y-177500
X130740Y-177500
X133280Y-177500
X135820Y-177500
X138360Y-177500
X151380Y-124760
X151380Y-127300
X151380Y-129840
X151380Y-132380
X151380Y-134920
X151380Y-137460
X151380Y-140000
X159000Y-124760
X159000Y-127300
X159000Y-129840
X159000Y-132380
X159000Y-134920
X159000Y-137460
X159000Y-140000
X187880Y-162140
X187880Y-164680
X187880Y-167220
X187880Y-169760
X187880Y-172300
X187880Y-174840
X187880Y-177380
X187880Y-179920
X187880Y-182460
X187880Y-185000
X195500Y-162140
X195500Y-164680
X195500Y-167220
X195500Y-169760
X195500Y-172300
X195500Y-174840
X195500Y-177380
X195500Y-179920
X195500Y-182460
X195500Y-185000
X235500Y-110000
X238040Y-110000
X240580Y-110000
X243120Y-110000
X245660Y-110000
X248200Y-110000
X250740Y-110000
X253280Y-110000
X255820Y-110000
X258360Y-110000
X211725Y-186425
X211725Y-190225
X45500Y-144880
X45500Y-152500
X48040Y-144880
X48040Y-152500
X50580Y-144880
X50580Y-152500
X53120Y-144880
X53120Y-152500
X55660Y-144880
X55660Y-152500
X58200Y-144880
X58200Y-152500
X60740Y-144880
X60740Y-152500
X63280Y-144880
X63280Y-152500
X65820Y-144880
X65820Y-152500
X180500Y-91500
X183000Y-91500
X199000Y-63880
X199000Y-71500
X201540Y-63880
X201540Y-71500
X204080Y-63880
X204080Y-71500
X206620Y-63880
X206620Y-71500
X209160Y-63880
X209160Y-71500
X211700Y-63880
X211700Y-71500
X214240Y-63880
X214240Y-71500
X216780Y-63880
X216780Y-71500
X219320Y-63880
X219320Y-71500
X221860Y-63880
X221860Y-71500
X166500Y-91500
X169000Y-91500
X163880Y-99760
X163880Y-102300
X163880Y-104840
X163880Y-107380
X163880Y-109920
X163880Y-112460
X163880Y-115000
X171500Y-99760
X171500Y-102300
X171500Y-104840
X171500Y-107380
X171500Y-109920
X171500Y-112460
X171500Y-115000
X173880Y-162140
X173880Y-164680
X173880Y-167220
X173880Y-169760
X173880Y-172300
X173880Y-174840
X173880Y-177380
X173880Y-179920
X173880Y-182460
X173880Y-185000
X181500Y-162140
X181500Y-164680
X181500Y-167220
X181500Y-169760
X181500Y-172300
X181500Y-174840
X181500Y-177380
X181500Y-179920
X181500Y-182460
X181500Y-185000
X204380Y-161220
X204380Y-163760
X204380Y-166300
X204380Y-168840
X204380Y-171380
X204380Y-173920
X204380Y-176460
X204380Y-179000
X212000Y-161220
X212000Y-163760
X212000Y-166300
X212000Y-168840
X212000Y-171380
X212000Y-173920
X212000Y-176460
X212000Y-179000
X312260Y-113900
X312260Y-116440
X312260Y-118980
X312260Y-121520
X312260Y-124060
X312260Y-126600
X312260Y-129140
X312260Y-131680
X312260Y-134220
X312260Y-136760
X312260Y-139300
X312260Y-141840
X312260Y-144380
X312260Y-146920
X312260Y-149460
X312260Y-152000
X327500Y-113900
X327500Y-116440
X327500Y-118980
X327500Y-121520
X327500Y-124060
X327500Y-126600
X327500Y-129140
X327500Y-131680
X327500Y-134220
X327500Y-136760
X327500Y-139300
X327500Y-141840
X327500Y-144380
X327500Y-146920
X327500Y-149460
X327500Y-152000
X356380Y-170720
X356380Y-173260
X356380Y-175800
X356380Y-178340
X356380Y-180880
X356380Y-183420
X356380Y-185960
X356380Y-188500
X364000Y-170720
X364000Y-173260
X364000Y-175800
X364000Y-178340
X364000Y-180880
X364000Y-183420
X364000Y-185960
X364000Y-188500
X235000Y-63880
X235000Y-71500
X237540Y-63880
X237540Y-71500
X240080Y-63880
X240080Y-71500
X242620Y-63880
X242620Y-71500
X245160Y-63880
X245160Y-71500
X247700Y-63880
X247700Y-71500
X250240Y-63880
X250240Y-71500
X232380Y-160180
X232380Y-162720
X232380Y-165260
X232380Y-167800
X232380Y-170340
X232380Y-172880
X232380Y-175420
X232380Y-177960
X232380Y-180500
X240000Y-160180
X240000Y-162720
X240000Y-165260
X240000Y-167800
X240000Y-170340
X240000Y-172880
X240000Y-175420
X240000Y-177960
X240000Y-180500
X45500Y-132380
X45500Y-140000
X48040Y-132380
X48040Y-140000
X50580Y-132380
X50580Y-140000
X53120Y-132380
X53120Y-140000
X55660Y-132380
X55660Y-140000
X58200Y-132380
X58200Y-140000
X60740Y-132380
X60740Y-140000
X63280Y-132380
X63280Y-140000
X65820Y-132380
X65820Y-140000
X176380Y-99760
X176380Y-102300
X176380Y-104840
X176380Y-107380
X176380Y-109920
X176380Y-112460
X176380Y-115000
X184000Y-99760
X184000Y-102300
X184000Y-104840
X184000Y-107380
X184000Y-109920
X184000Y-112460
X184000Y-115000
X54500Y-186000
X59380Y-186000
X134380Y-152260
X134380Y-154800
X134380Y-157340
X134380Y-159880
X134380Y-162420
X134380Y-164960
X134380Y-167500
X142000Y-152260
X142000Y-154800
X142000Y-157340
X142000Y-159880
X142000Y-162420
X142000Y-164960
X142000Y-167500
X79500Y-184000
X82000Y-184000
X236380Y-117140
X236380Y-119680
X236380Y-122220
X236380Y-124760
X236380Y-127300
X236380Y-129840
X236380Y-132380
X236380Y-134920
X236380Y-137460
X236380Y-140000
X244000Y-117140
X244000Y-119680
X244000Y-122220
X244000Y-124760
X244000Y-127300
X244000Y-129840
X244000Y-132380
X244000Y-134920
X244000Y-137460
X244000Y-140000
X190760Y-100740
X190760Y-103280
X190760Y-105820
X190760Y-108360
X190760Y-110900
X190760Y-113440
X190760Y-115980
X190760Y-118520
X190760Y-121060
X190760Y-123600
X190760Y-126140
X190760Y-128680
X190760Y-131220
X190760Y-133760
X190760Y-136300
X190760Y-138840
X190760Y-141380
X190760Y-143920
X190760Y-146460
X190760Y-149000
X206000Y-100740
X206000Y-103280
X206000Y-105820
X206000Y-108360
X206000Y-110900
X206000Y-113440
X206000Y-115980
X206000Y-118520
X206000Y-121060
X206000Y-123600
X206000Y-126140
X206000Y-128680
X206000Y-131220
X206000Y-133760
X206000Y-136300
X206000Y-138840
X206000Y-141380
X206000Y-143920
X206000Y-146460
X206000Y-149000
X249880Y-117140
X249880Y-119680
X249880Y-122220
X249880Y-124760
X249880Y-127300
X249880Y-129840
X249880Y-132380
X249880Y-134920
X249880Y-137460
X249880Y-140000
X257500Y-117140
X257500Y-119680
X257500Y-122220
X257500Y-124760
X257500Y-127300
X257500Y-129840
X257500Y-132380
X257500Y-134920
X257500Y-137460
X257500Y-140000
X138880Y-99760
X138880Y-102300
X138880Y-104840
X138880Y-107380
X138880Y-109920
X138880Y-112460
X138880Y-115000
X146500Y-99760
X146500Y-102300
X146500Y-104840
X146500Y-107380
X146500Y-109920
X146500Y-112460
X146500Y-115000
X151380Y-99760
X151380Y-102300
X151380Y-104840
X151380Y-107380
X151380Y-109920
X151380Y-112460
X151380Y-115000
X159000Y-99760
X159000Y-102300
X159000Y-104840
X159000Y-107380
X159000Y-109920
X159000Y-112460
X159000Y-115000
X271000Y-167880
X271000Y-175500
X273540Y-167880
X273540Y-175500
X276080Y-167880
X276080Y-175500
X278620Y-167880
X278620Y-175500
X281160Y-167880
X281160Y-175500
X283700Y-167880
X283700Y-175500
X286240Y-167880
X286240Y-175500
X288780Y-167880
X288780Y-175500
X269500Y-117380
X269500Y-125000
X272040Y-117380
X272040Y-125000
X274580Y-117380
X274580Y-125000
X277120Y-117380
X277120Y-125000
X279660Y-117380
X279660Y-125000
X282200Y-117380
X282200Y-125000
X284740Y-117380
X284740Y-125000
X287280Y-117380
X287280Y-125000
X289820Y-117380
X289820Y-125000
X292360Y-117380
X292360Y-125000
X173000Y-75880
X173000Y-83500
X175540Y-75880
X175540Y-83500
X178080Y-75880
X178080Y-83500
X180620Y-75880
X180620Y-83500
X120500Y-184000
X123040Y-184000
X125580Y-184000
X128120Y-184000
X130660Y-184000
X133200Y-184000
X349500Y-170800
X349500Y-173340
X349500Y-175880
X349500Y-178420
X349500Y-180960
X349500Y-183500
X269500Y-97500
X272040Y-97500
X274580Y-97500
X277120Y-97500
X279660Y-97500
X282200Y-97500
X284740Y-97500
X287280Y-97500
X289820Y-97500
X292360Y-97500
X108500Y-82500
X108500Y-85000
X258000Y-179000
X260500Y-179000
X57045Y-125350
X61925Y-125350
X134000Y-79880
X134000Y-87500
X136540Y-79880
X136540Y-87500
X139080Y-79880
X139080Y-87500
X141620Y-79880
X141620Y-87500
X245880Y-160220
X245880Y-162760
X245880Y-165300
X245880Y-167840
X245880Y-170380
X245880Y-172920
X245880Y-175460
X245880Y-178000
X253500Y-160220
X253500Y-162760
X253500Y-165300
X253500Y-167840
X253500Y-170380
X253500Y-172920
X253500Y-175460
X253500Y-178000
X271000Y-154380
X271000Y-162000
X273540Y-154380
X273540Y-162000
X276080Y-154380
X276080Y-162000
X278620Y-154380
X278620Y-162000
X281160Y-154380
X281160Y-162000
X283700Y-154380
X283700Y-162000
X286240Y-154380
X286240Y-162000
X288780Y-154380
X288780Y-162000
X163880Y-124760
X163880Y-127300
X163880Y-129840
X163880Y-132380
X163880Y-134920
X163880Y-137460
X163880Y-140000
X171500Y-124760
X171500Y-127300
X171500Y-129840
X171500Y-132380
X171500Y-134920
X171500Y-137460
X171500Y-140000
X271000Y-181380
X271000Y-189000
X273540Y-181380
X273540Y-189000
X276080Y-181380
X276080Y-189000
X278620Y-181380
X278620Y-189000
X281160Y-181380
X281160Y-189000
X283700Y-181380
X283700Y-189000
X286240Y-181380
X286240Y-189000
X288780Y-181380
X288780Y-189000
X173500Y-91500
X176000Y-91500
X109380Y-152220
X109380Y-154760
X109380Y-157300
X109380Y-159840
X109380Y-162380
X109380Y-164920
X109380Y-167460
X109380Y-170000
X117000Y-152220
X117000Y-154760
X117000Y-157300
X117000Y-159840
X117000Y-162380
X117000Y-164920
X117000Y-167460
X117000Y-170000
X216880Y-161220
X216880Y-163760
X216880Y-166300
X216880Y-168840
X216880Y-171380
X216880Y-173920
X216880Y-176460
X216880Y-179000
X224500Y-161220
X224500Y-163760
X224500Y-166300
X224500Y-168840
X224500Y-171380
X224500Y-173920
X224500Y-176460
X224500Y-179000
X339000Y-163000
X341500Y-163000
X335260Y-113900
X335260Y-116440
X335260Y-118980
X335260Y-121520
X335260Y-124060
X335260Y-126600
X335260Y-129140
X335260Y-131680
X335260Y-134220
X335260Y-136760
X335260Y-139300
X335260Y-141840
X335260Y-144380
X335260Y-146920
X335260Y-149460
X335260Y-152000
X350500Y-113900
X350500Y-116440
X350500Y-118980
X350500Y-121520
X350500Y-124060
X350500Y-126600
X350500Y-129140
X350500Y-131680
X350500Y-134220
X350500Y-136760
X350500Y-139300
X350500Y-141840
X350500Y-144380
X350500Y-146920
X350500Y-149460
X350500Y-152000
X269500Y-102380
X269500Y-110000
X272040Y-102380
X272040Y-110000
X274580Y-102380
X274580Y-110000
X277120Y-102380
X277120Y-110000
X279660Y-102380
X279660Y-110000
X282200Y-102380
X282200Y-110000
X284740Y-102380
X284740Y-110000
X287280Y-102380
X287280Y-110000
X289820Y-102380
X289820Y-110000
X292360Y-102380
X292360Y-110000
X45500Y-157380
X45500Y-165000
X48040Y-157380
X48040Y-165000
X50580Y-157380
X50580Y-165000
X53120Y-157380
X53120Y-165000
X55660Y-157380
X55660Y-165000
X58200Y-157380
X58200Y-165000
X60740Y-157380
X60740Y-165000
X63280Y-157380
X63280Y-165000
X65820Y-157380
X65820Y-165000
X68000Y-93920
X68000Y-96460
X68000Y-99000
T5
X193040Y-48260
X193040Y-55880
X193040Y-58420
X198120Y-48260
X198120Y-55880
X198120Y-58420
X80030Y-89420
X80030Y-99580
X82570Y-89420
X82570Y-99580
X85110Y-89420
X85110Y-99580
X87650Y-89420
X87650Y-99580
X90190Y-89420
X90190Y-99580
X92730Y-89420
X92730Y-99580
X95270Y-89420
X95270Y-99580
X97810Y-89420
X97810Y-99580
X100350Y-89420
X100350Y-99580
X102890Y-89420
X102890Y-99580
X105430Y-89420
X105430Y-99580
X107970Y-89420
X107970Y-99580
T6
X123600Y-54220
X123600Y-56720
X130400Y-54220
X130400Y-56720
T7
X102000Y-136520
X102000Y-139060
X102000Y-141600
X102000Y-144140
X102000Y-146680
X102000Y-149220
X102000Y-151760
X102000Y-154300
X102000Y-156840
X102000Y-159380
X102000Y-161920
X102000Y-164460
X102000Y-167000
X95500Y-187500
X96885Y-190340
X98270Y-187500
X99655Y-190340
X101040Y-187500
X102425Y-190340
X103810Y-187500
X105195Y-190340
X106580Y-187500
X92000Y-70000
X92000Y-75000
X219220Y-87000
X219220Y-89540
X221760Y-87000
X221760Y-89540
X224300Y-87000
X224300Y-89540
X226840Y-87000
X226840Y-89540
X229380Y-87000
X229380Y-89540
X231920Y-87000
X231920Y-89540
X234460Y-87000
X234460Y-89540
X237000Y-87000
X237000Y-89540
X250975Y-185455
X250975Y-187995
X250975Y-190535
X250975Y-193075
X104000Y-70000
X104000Y-75000
X80000Y-70000
X80000Y-75000
X298500Y-127185
X298500Y-129725
X301040Y-127185
X301040Y-129725
X303580Y-127185
X303580Y-129725
X104000Y-115000
X106540Y-115000
X109080Y-115000
X94000Y-115000
X96540Y-115000
X99080Y-115000
X147500Y-187500
X148885Y-190340
X150270Y-187500
X151655Y-190340
X153040Y-187500
X154425Y-190340
X155810Y-187500
X157195Y-190340
X158580Y-187500
X140000Y-69000
X140000Y-74000
X364460Y-114740
X364460Y-117280
X364460Y-119820
X364460Y-122360
X364460Y-124900
X364460Y-127440
X364460Y-129980
X364460Y-132520
X364460Y-135060
X364460Y-137600
X364460Y-140140
X364460Y-142680
X364460Y-145220
X364460Y-147760
X364460Y-150300
X364460Y-152840
X364460Y-155380
X364460Y-157920
X364460Y-160460
X364460Y-163000
X367000Y-114740
X367000Y-117280
X367000Y-119820
X367000Y-122360
X367000Y-124900
X367000Y-127440
X367000Y-129980
X367000Y-132520
X367000Y-135060
X367000Y-137600
X367000Y-140140
X367000Y-142680
X367000Y-145220
X367000Y-147760
X367000Y-150300
X367000Y-152840
X367000Y-155380
X367000Y-157920
X367000Y-160460
X367000Y-163000
X97000Y-123500
X99540Y-123500
X102080Y-123500
X349000Y-160460
X349000Y-163000
X351540Y-160460
X351540Y-163000
X354080Y-160460
X354080Y-163000
X50500Y-87000
X50500Y-92000
X67125Y-104900
X69665Y-104900
X72205Y-104900
X134500Y-106460
X134500Y-109000
X128000Y-69000
X128000Y-74000
X54000Y-80000
X59000Y-80000
X116000Y-70000
X116000Y-75000
X45000Y-77475
X45000Y-82475
T8
X288290Y-77470
X288290Y-82550
X290830Y-77470
X290830Y-82550
X293370Y-77470
X293370Y-82550
X295910Y-77470
X295910Y-82550
X298450Y-77470
X298450Y-82550
X300990Y-77470
X300990Y-82550
X303530Y-77470
X303530Y-82550
X306070Y-77470
X306070Y-82550
X308610Y-77470
X308610Y-82550
X311150Y-77470
X311150Y-82550
X313690Y-77470
X313690Y-82550
X316230Y-77470
X316230Y-82550
X318770Y-77470
X318770Y-82550
X321310Y-77470
X321310Y-82550
X323850Y-77470
X323850Y-82550
X326390Y-77470
X326390Y-82550
X328930Y-77470
X328930Y-82550
X331470Y-77470
X331470Y-82550
X334010Y-77470
X334010Y-82550
X336550Y-77470
X336550Y-82550
X339090Y-77470
X339090Y-82550
X341630Y-77470
X341630Y-82550
X344170Y-77470
X344170Y-82550
X346710Y-77470
X346710Y-82550
X349250Y-77470
X349250Y-82550
X288290Y-54610
X288290Y-59690
X290830Y-54610
X290830Y-59690
X293370Y-54610
X293370Y-59690
X295910Y-54610
X295910Y-59690
X298450Y-54610
X298450Y-59690
X300990Y-54610
X300990Y-59690
X303530Y-54610
X303530Y-59690
X306070Y-54610
X306070Y-59690
X308610Y-54610
X308610Y-59690
X311150Y-54610
X311150Y-59690
X313690Y-54610
X313690Y-59690
X316230Y-54610
X316230Y-59690
X318770Y-54610
X318770Y-59690
X321310Y-54610
X321310Y-59690
X323850Y-54610
X323850Y-59690
X326390Y-54610
X326390Y-59690
X328930Y-54610
X328930Y-59690
X331470Y-54610
X331470Y-59690
X334010Y-54610
X334010Y-59690
X336550Y-54610
X336550Y-59690
X339090Y-54610
X339090Y-59690
X341630Y-54610
X341630Y-59690
X344170Y-54610
X344170Y-59690
X346710Y-54610
X346710Y-59690
X349250Y-54610
X349250Y-59690
X311000Y-180000
X330999Y-180000
T9
X222120Y-54175
X222120Y-58465
X224280Y-54175
X224280Y-58465
X226440Y-54175
X226440Y-58465
X228600Y-54175
X228600Y-58465
X230760Y-54175
X230760Y-58465
X232920Y-54175
X232920Y-58465
X235080Y-54175
X235080Y-58465
T10
X56500Y-100500
X59040Y-100500
X61580Y-100500
X41500Y-100500
X44040Y-100500
X140460Y-60000
X143000Y-60000
X41500Y-112000
X44040Y-112000
X136000Y-92500
X136000Y-95040
X49000Y-100500
X51540Y-100500
X68000Y-86000
X70540Y-86000
X73080Y-86000
X111500Y-61000
X114040Y-61000
X116580Y-61000
X204500Y-90500
X207040Y-90500
X196500Y-90500
X199040Y-90500
X43000Y-67500
X45540Y-67500
X48080Y-67500
X50620Y-67500
X53160Y-67500
X248500Y-77000
X248500Y-79540
X93500Y-62500
X96040Y-62500
X98580Y-62500
X101120Y-62500
X103660Y-62500
T11
X170300Y-57720
X170300Y-62720
X172800Y-48220
X172800Y-60220
X177800Y-57720
X177800Y-62720
X182800Y-48220
X182800Y-60220
X185300Y-57720
X185300Y-62720
X68700Y-57720
X68700Y-62720
X71200Y-48220
X71200Y-60220
X76200Y-57720
X76200Y-62720
X81200Y-48220
X81200Y-60220
X83700Y-57720
X83700Y-62720
T12
X152400Y-54610
X101600Y-54610
T13
X120250Y-51220
X127000Y-50420
X133750Y-51220
T14
X147320Y-54610
X152400Y-49530
X157480Y-54610
X96520Y-54610
X101600Y-49530
X106680Y-54610
T15
X279718Y-80010
X357822Y-80010
X357822Y-57150
X279718Y-57150
X358140Y-145415
X307340Y-189230
X203200Y-189230
X68580Y-189230
X328930Y-107950
X203200Y-77470
X68580Y-77470
T16
X210600Y-56320
X246600Y-56320
T17
X88540Y-187800
X113540Y-187800
X140540Y-187800
X165540Y-187800
T7
G00X46100Y-55600
M15
G01X46100Y-57600
M16
G05
G00X51800Y-53600
M15
G01X49800Y-53600
M16
G05
G00X51800Y-59600
M15
G01X49800Y-59600
M16
G05
T0
M30
